<svg width="175" height="270" viewBox="0 0 175 270" fill="none" xmlns="http://www.w3.org/2000/svg">
<g clip-path="url(#clip0_2825_4932)">
<path d="M109.5 33.3101C110.156 32.5952 110.8 31.864 111.212 31.0461C111.418 30.6236 111.558 30.2391 111.591 29.7895C111.623 29.3887 111.548 28.9446 111.385 28.5763C111.228 28.2026 110.973 27.8884 110.676 27.726C110.535 27.6393 110.361 27.5851 110.215 27.5743C109.917 27.5364 109.869 27.5581 109.641 27.5851C108.818 27.6989 107.984 28.1538 106.808 28.3217C106.251 28.4355 105.303 28.2351 104.821 27.6122C104.29 27.0164 104.241 26.2148 104.219 25.7382C104.198 25.1966 104.198 24.8662 104.057 24.5629C103.97 24.4004 103.748 24.1133 103.467 23.9617C102.871 23.6096 102.156 23.5446 101.408 23.7558C100.645 23.9562 99.8702 24.3895 99.0253 24.8499L96.4796 26.2419L97.46 23.4742L98.5703 20.3436L99.1227 18.7783C99.2257 18.4913 99.2906 18.3017 99.3286 18.1229C99.3719 17.9442 99.3665 17.8034 99.3556 17.798C99.3394 17.798 99.4098 17.9334 99.4802 17.9713C99.5452 18.0092 99.4694 17.9605 99.3015 17.9659L98.9873 17.9767L98.6949 18.0092C98.4836 18.0417 98.2778 18.0905 98.072 18.15C97.2541 18.4046 96.5067 18.9083 95.9867 19.5528L94.9685 20.8257L93.9556 19.5203C93.3544 18.7404 93.0565 17.7384 93.0132 16.8772C92.9699 16.0052 93.0999 15.2307 93.2299 14.5157C93.3653 13.8008 93.5169 13.14 93.6198 12.5225C93.6686 12.2301 93.7119 11.8618 93.7011 11.7697C93.6632 11.6343 93.7607 11.9538 93.9123 11.9972C93.934 11.9972 93.7661 11.9376 93.3761 11.9105C93.062 11.8834 92.8507 11.8834 92.5366 11.8888C91.9625 11.9105 91.3829 12.0243 90.8305 12.203C89.7201 12.5605 88.6748 13.1887 87.8895 14.0608L87.1528 14.884L86.3891 14.2178C85.9342 13.8224 85.5605 13.1996 85.5171 12.6092C85.4576 12.0459 85.5442 11.5639 85.658 11.1631C85.8854 10.3506 86.1887 9.70068 86.4 9.07781C86.4975 8.7745 86.5841 8.48203 86.6058 8.23829C86.6545 7.9729 86.595 7.83208 86.557 7.68584C86.53 7.65876 86.5083 7.62626 86.4866 7.59376C86.4866 7.59376 86.4433 7.53418 86.4812 7.56668L86.3891 7.48002C86.3891 7.48002 86.2808 7.39336 86.1996 7.36086C86.0154 7.27962 85.7446 7.23087 85.4521 7.23087C85.1813 7.22546 84.8239 7.26879 84.488 7.31753C84.1902 7.36628 83.8598 7.43669 83.5456 7.52877C82.9119 7.71292 82.2999 7.97832 81.7258 8.31412C80.5667 8.97491 79.5863 9.95525 78.9093 11.1089L78.6656 11.5205L78.2431 11.3364C77.7069 11.1089 77.409 10.5781 77.3169 10.134C77.214 9.67902 77.2465 9.22947 77.3603 8.807C77.5715 8.02706 77.929 7.38253 77.9073 6.82465C77.8965 6.48343 77.8261 6.28303 77.6744 5.99597C77.5227 5.7414 77.3115 5.50851 77.0569 5.32435C76.5587 4.94522 75.8979 4.74481 75.2912 4.79898C73.9805 4.90189 72.8106 5.7739 71.8736 6.78674C70.9041 7.82124 70.0754 9.06698 68.8892 10.0961L68.1743 10.7135L68.0064 9.76026L67.0856 4.57149C66.9123 3.73739 66.8148 2.75164 66.5711 2.15043C66.4303 1.83087 66.3165 1.7063 66.0999 1.61964C66.0024 1.58714 65.6991 1.58173 65.4337 1.7063C65.3145 1.74963 65.1141 1.86337 65.0708 1.9067C64.9137 2.03669 64.6862 2.18293 64.5887 2.30209C64.3992 2.5079 64.1609 2.78955 63.9767 3.11994C63.5976 3.76447 63.3268 4.53358 63.0722 5.35143C62.8122 6.16929 62.5685 7.0413 62.1948 7.93498C61.821 8.81783 61.2848 9.74943 60.4561 10.4915L59.3133 11.5205L58.658 10.0798L57.1089 6.67842L56.3344 4.97771C56.0852 4.45775 55.7873 3.72656 55.6032 3.43408C55.5057 3.26618 55.3757 3.15785 55.4136 3.20118C55.4786 3.26076 55.7603 3.30951 55.8957 3.21202C56.0257 3.0387 55.4244 3.85113 55.3215 4.13819C54.8882 5.04812 54.6553 6.14762 54.4604 7.35003C54.26 8.54702 54.092 9.85234 53.6696 11.2064C53.5288 11.5855 53.4963 11.7968 53.2254 12.3221C53.09 12.5713 52.8626 12.9125 52.4455 13.1942C52.0664 13.4596 51.4868 13.5841 51.0481 13.53C50.1707 13.4054 49.797 13.0479 49.4395 12.7879L48.6866 12.1272L43.1133 7.14963L45.4044 6.93298C45.2744 7.1388 45.1607 7.35003 45.0902 7.61001C45.0361 7.87541 44.9982 8.17872 45.009 8.53077C45.0307 9.22947 45.1986 10.0527 45.3881 10.9302C45.5831 11.813 45.7998 12.7717 45.8431 13.8658C45.8648 14.4182 45.8323 15.0032 45.7131 15.6098C45.5777 16.2273 45.3286 16.8285 44.9819 17.3863L44.5974 18.0038L43.8824 18.0688C42.29 18.215 41.0768 17.4784 40.2535 16.9422C39.4032 16.3843 38.6882 15.8373 38.152 15.664C37.93 15.5665 37.6212 15.5881 37.6267 15.5556C37.54 15.5827 37.3396 15.6261 37.345 15.6369C37.345 15.6477 37.3558 15.6261 37.3017 15.6586C37.2204 15.6911 37.15 15.7615 37.0634 15.8319C36.7384 16.1569 36.4622 16.8501 36.4405 17.5272C36.4026 18.1825 36.5976 19.0491 36.8196 19.9591C37.0363 20.869 37.2963 21.9414 37.2583 23.0788C37.2421 24.2162 36.9225 25.3211 36.4784 26.2907C36.0289 27.2656 35.4331 28.1268 34.794 28.9175C33.4832 30.4937 31.9071 31.6852 30.4935 32.8768C29.069 34.0738 27.7203 35.3033 26.8267 36.8198C25.933 38.3526 25.4238 40.1562 24.7306 41.9599C24.3839 42.8535 23.9777 43.7581 23.409 44.5651C22.8403 45.3721 22.0658 46.0545 21.1667 46.4391L21.0367 46.1791C22.667 45.2313 23.3873 43.4331 23.8748 41.6728C24.3839 39.9017 24.6764 37.9573 25.5809 36.1428C26.4963 34.3121 27.9045 32.8551 29.2748 31.5282C30.6668 30.1903 32.0263 28.9554 33.0608 27.5472C34.1115 26.1607 34.8481 24.5791 34.7994 23.0734C34.7994 22.3151 34.5827 21.5244 34.3227 20.6144C34.0736 19.6991 33.754 18.7187 33.7378 17.473C33.754 16.276 34.0411 15.0357 34.9727 13.9308C35.2164 13.6654 35.4927 13.4054 35.8285 13.2104C35.9747 13.1075 36.2022 13.0046 36.4188 12.9179C36.6355 12.8313 36.6734 12.8313 36.8088 12.7825C37.7458 12.555 38.4066 12.6742 39.0782 12.8746C40.351 13.3079 41.1255 13.9795 41.873 14.4237C42.615 14.9111 43.1946 15.0953 43.5195 15.0411L42.42 15.729C42.5392 15.5015 42.6421 15.2686 42.6963 14.9869C42.7396 14.6999 42.7613 14.3749 42.7396 14.0174C42.6908 13.2971 42.5121 12.4738 42.3225 11.5855C42.1384 10.6919 41.9163 9.72776 41.8784 8.61202C41.8622 8.05414 41.9109 7.45294 42.0571 6.83007C42.2196 6.20179 42.5121 5.60058 42.9021 5.05896L43.9041 3.65073L45.1932 4.84231L50.6744 9.91733L51.3081 10.5077C51.4327 10.6377 51.5897 10.6594 51.3406 10.6052C50.9885 10.524 50.5823 10.9518 50.6636 10.9085C50.6906 10.8868 50.8315 10.4969 50.9127 10.2911C51.2648 9.2728 51.4598 8.1083 51.6927 6.85715C51.9256 5.61683 52.218 4.24652 52.8896 2.91412C53.0792 2.56748 53.3121 2.1721 53.4746 1.96086L53.61 1.77129C53.7454 1.59256 53.7617 1.57631 53.8592 1.46257C54.0216 1.28383 54.2329 1.07801 54.547 0.899278C55.2186 0.471395 56.2152 0.552638 56.8002 0.958857C57.3689 1.33799 57.618 1.74421 57.8347 2.11252C58.2463 2.91412 58.3655 3.35826 58.6363 3.97571L59.335 5.70891L60.7378 9.16989L58.9396 8.75826C59.9578 7.92957 60.5266 6.34261 61.1603 4.68524C61.4852 3.85113 61.8481 2.96829 62.4114 2.12877C62.6876 1.71172 63.0289 1.32175 63.4838 0.931776C63.7005 0.747623 63.8575 0.66638 64.0471 0.530973C64.3667 0.325156 64.5671 0.243912 64.8596 0.141004C65.412 -0.0269001 66.0511 -0.118976 66.7661 0.200582C67.3673 0.471395 67.806 1.12134 67.9522 1.61964C68.2718 2.68122 68.2555 3.47741 68.3964 4.36568L69.0463 9.59236L68.1635 9.26197C69.225 8.38995 70.0754 7.18754 71.1207 6.09888C71.6569 5.54642 72.2419 5.04271 72.9244 4.63649C73.2656 4.43609 73.623 4.26277 74.0076 4.13278C74.3705 4.00279 74.82 3.91613 75.1992 3.89446C76.0549 3.85113 76.8782 4.11111 77.5607 4.59316C77.9019 4.83689 78.1998 5.14562 78.4273 5.51934C78.6493 5.86056 78.801 6.38594 78.8064 6.77591C78.8226 7.71292 78.4002 8.40078 78.2648 9.02907C78.1131 9.59777 78.3135 10.2802 78.6331 10.356L77.994 10.6052C78.7143 9.25655 79.7867 8.11372 81.0487 7.2417C81.6824 6.80841 82.3703 6.45093 83.1015 6.18554C83.4644 6.05013 83.8327 5.94181 84.2389 5.84973C84.6072 5.76849 84.9647 5.69807 85.4088 5.66558C85.8313 5.64391 86.2862 5.66016 86.7791 5.82265C87.0337 5.91472 87.2395 6.0068 87.5211 6.22887L87.6295 6.32094C87.727 6.41844 87.7378 6.4401 87.792 6.5051L88.0519 6.83549C88.3282 7.32837 88.4419 7.9079 88.404 8.36287C88.3877 8.8395 88.2903 9.2403 88.1928 9.62486C87.9869 10.3777 87.7378 11.0493 87.624 11.6343C87.5591 11.9268 87.5591 12.1705 87.5861 12.3167C87.6078 12.463 87.6728 12.4521 87.7378 12.5388L86.2321 12.6959C87.2178 11.4447 88.5448 10.486 90.0397 9.92816C90.7871 9.65735 91.5725 9.4732 92.3741 9.40821C92.7478 9.37571 93.2299 9.37029 93.6036 9.39196C93.8961 9.42445 94.4377 9.40279 95.0822 9.71152C95.8838 10.0419 96.3171 11.0764 96.29 11.6289C96.3117 12.2301 96.2359 12.5496 96.1871 12.9342C96.0734 13.6816 95.9163 14.3641 95.8026 15.0086C95.5589 16.3085 95.5372 17.3701 96.0138 17.9713L93.9827 17.9388C94.871 16.8772 96.0572 16.1244 97.357 15.7452C97.682 15.6531 98.0178 15.5827 98.3536 15.5394L98.8844 15.4907L99.0902 15.4852H99.399C99.7835 15.5069 100.271 15.5556 100.807 15.886C101.354 16.211 101.728 16.8664 101.798 17.4134C101.923 18.4642 101.56 19.152 101.381 19.6503L100.769 21.194L99.5452 24.2812L97.9853 22.9055C98.8574 22.4614 99.8214 21.9847 100.964 21.7572C102.102 21.5135 103.477 21.676 104.512 22.4235C105.043 22.8026 105.487 23.2846 105.752 24.0321C105.963 24.6441 105.915 25.3157 105.909 25.7382C105.904 26.2148 105.92 26.464 106.05 26.6156C106.175 26.7727 106.283 26.8648 106.684 26.8485C107.448 26.8106 108.417 26.399 109.544 26.3502C109.798 26.3286 110.237 26.3719 110.421 26.4261C110.757 26.4965 111.044 26.6319 111.304 26.8214C111.824 27.1952 112.138 27.7314 112.306 28.273C112.474 28.82 112.512 29.3725 112.409 29.9358C112.317 30.4503 112.073 30.9811 111.802 31.4036C111.233 32.2756 110.454 32.9147 109.712 33.543L109.5 33.3101Z" fill="#153051"/>
<path d="M20.8038 46.3743C20.8038 46.3743 19.9914 47.1055 18.4748 48.2266C18.1282 48.5083 17.6191 48.8278 17.2724 49.1312C16.8662 49.4778 16.46 49.8569 16.1675 50.2632C16.0321 50.4473 15.9021 50.7235 15.8696 50.8481C15.7938 51.0756 15.8263 51.0485 15.81 51.1677C15.7992 51.2652 15.7992 51.3681 15.8155 51.4656C15.8371 51.6605 15.9184 51.8447 15.9996 51.9368C16.1079 52.0397 16.0917 52.0126 16.2596 52.0505C16.3787 52.1101 17.0937 51.8989 18.0686 51.601C18.2799 51.5414 18.6861 51.4601 19.0706 51.4926C19.4173 51.5143 19.7531 51.5739 20.0835 51.693C20.4139 51.8122 20.7551 51.9801 21.0855 52.2672C21.4104 52.5434 21.7679 53.0038 21.8546 53.6158C21.9467 54.217 21.7408 54.7965 21.47 55.1649C21.2317 55.5061 20.9176 55.7606 20.7659 55.8852C20.4139 56.1669 19.8885 56.5135 19.4823 56.7572C18.6482 57.2393 17.7978 57.7322 16.9312 58.2305C16.1296 58.7342 15.3659 59.3029 14.9055 60.1099C14.4072 60.8628 14.3368 61.946 15.0734 62.1735C15.4634 62.3306 15.9779 62.3522 16.5737 62.5093C16.8662 62.5851 17.2508 62.7422 17.5053 63.1051C17.6245 63.2405 17.7166 63.5546 17.7382 63.6467C17.7816 63.9229 17.7491 64.1287 17.6895 64.3346C17.3862 65.1253 16.8229 65.4611 16.3463 65.797C15.8534 66.1003 15.4742 66.3494 15.068 66.6636C14.2881 67.2918 13.5948 68.0122 13.0261 68.7976C12.7499 69.1659 12.4141 69.6371 12.3328 69.9079C12.1812 70.2545 12.0945 70.6391 12.127 70.8503C12.2082 71.1103 12.1162 70.8611 12.1812 70.9153C12.0782 70.8828 12.5278 70.9099 13.1832 70.8936L13.454 70.9099C13.5677 70.9207 13.7356 70.9478 13.8277 70.9749C14.0498 71.0236 14.261 71.094 14.4831 71.1969C14.9055 71.4082 15.4147 71.7277 15.7396 72.4535C16.0863 73.1739 15.8317 74.0892 15.588 74.4684L15.4309 74.7338L15.2738 74.9558L15.0572 75.2646C13.5406 77.2252 11.7208 78.2327 10.2259 79.2022C9.46761 79.6788 8.796 80.1554 8.20021 80.6212C7.64775 81.0545 7.00864 81.6882 6.85698 81.9915C6.73782 82.1865 6.67825 82.4032 6.66741 82.4411C6.67825 82.479 6.48326 82.2894 6.51576 82.3653C6.43993 82.3815 6.77574 82.4357 7.16571 82.4519C7.53401 82.4682 8.23813 82.5548 8.70392 82.9827C9.2618 83.4268 9.3972 84.1472 9.34304 84.5968C9.29429 85.068 9.13722 85.4146 8.98015 85.7233C8.68226 86.3029 8.18396 86.8282 7.83191 87.0774C6.38577 88.2852 5.52458 88.946 5.52458 88.946L5.30794 88.7456C5.30794 88.7456 5.88747 87.8302 6.97614 86.2866C7.27945 85.8696 7.43652 85.5771 7.58818 85.1167C7.64775 84.9109 7.67484 84.6888 7.64775 84.548C7.61526 84.4018 7.55568 84.4343 7.57193 84.4938C7.5286 84.4884 7.51235 84.5101 7.19821 84.5426C6.90031 84.5643 6.50493 84.7105 5.7304 84.4993C5.0642 84.3584 4.30593 83.5135 4.25177 82.7715C4.13803 82.0457 4.27343 81.4716 4.47383 80.9354C4.56591 80.6916 4.7284 80.3829 4.87464 80.1554C5.03171 79.9171 5.1617 79.76 5.31335 79.5542C5.61125 79.1751 5.94164 78.8122 6.28286 78.4764C6.97072 77.7939 7.75608 77.2252 8.51435 76.6728C10.0201 75.5679 11.6395 74.6038 12.6524 73.4122L13.0044 72.9897C13.0261 72.941 12.8907 73.3093 13.0369 73.553C13.3402 73.9863 13.2102 73.6613 13.0315 73.6993C12.674 73.618 12.0403 73.7968 10.9679 73.3255C10.5834 73.136 10.0905 72.7243 9.84675 72.2369C9.58677 71.744 9.52719 71.2511 9.54344 70.8341C9.58677 69.9891 9.85758 69.35 10.1934 68.7596C10.605 68.088 10.9787 67.7576 11.3958 67.3243C12.2407 66.5227 13.1886 65.8511 14.196 65.3095C15.1926 64.7354 16.395 64.4429 16.6658 63.9446C16.6929 63.8958 16.6875 63.8363 16.7091 63.8471C16.6821 63.6792 16.6929 63.7334 16.6604 63.6521C16.6225 63.5709 16.5033 63.468 16.2921 63.3976C15.875 63.2513 15.3117 63.2242 14.7268 62.9751C14.1093 62.7639 13.5894 62.0056 13.6056 61.3719C13.5623 60.7328 13.7573 60.137 13.9685 59.6224C14.4506 58.5771 15.1818 57.6942 15.9563 56.9739C16.7254 56.2481 17.5162 55.6307 18.1986 55.0132C18.5669 54.6774 18.7944 54.4445 19.1302 54.0816C19.3306 53.892 19.3577 53.8216 19.3793 53.7783C19.3739 53.7675 19.2927 53.8704 19.3144 54.0112C19.401 54.3524 19.4335 54.1899 19.2169 54.1466C19.1302 54.1195 19.0219 54.1033 18.9352 54.1033C18.8865 54.1087 18.854 54.0816 18.6482 54.1304C17.9603 54.217 17.0612 54.7695 15.5717 54.4282C14.9597 54.282 14.2718 53.735 13.9848 53.1879C13.6652 52.63 13.5569 52.0613 13.5569 51.5306C13.5569 51.2652 13.5894 51.0052 13.6435 50.7506C13.6869 50.5177 13.8385 50.1602 13.8927 50.0682C14.1473 49.5645 14.3964 49.2774 14.6889 48.9741C15.8317 47.8692 17.007 47.5009 17.8574 47.138C19.6014 46.4284 20.6468 46.1089 20.6468 46.1089L20.8038 46.3743Z" fill="#153051"/>
<path d="M5.71952 88.3609C4.53878 89.6012 3.34179 91.042 3.38512 92.5964C3.38512 92.7047 3.42845 93.0351 3.47719 93.111C3.52594 93.2464 3.60177 93.4251 3.69926 93.5659C3.88883 93.8584 4.14881 94.1184 4.44129 94.3025C4.72835 94.4867 5.05332 94.5896 5.31872 94.6004C5.58953 94.6058 5.78452 94.5246 5.95784 94.3513L6.96526 95.4833C5.16706 97.1786 3.81842 99.3234 3.07098 101.642C2.69725 102.801 2.43727 103.987 2.3452 105.184C2.23687 105.725 2.46977 106.235 2.3777 106.029C2.36145 106.012 2.32895 105.991 2.30728 105.975L2.28562 105.964H2.2802C2.1123 105.91 2.24229 105.953 2.20979 105.937L2.23687 105.942C2.25854 105.947 2.35603 105.98 2.3127 105.958C2.15021 105.92 2.30728 105.947 2.3777 105.926C2.58893 105.91 2.90849 105.79 3.54761 105.801C3.86175 105.807 4.35463 105.926 4.72835 106.256C5.13457 106.597 5.29705 107.014 5.37288 107.388C5.43788 107.746 5.41621 108.022 5.38913 108.249C5.35663 108.493 5.34038 108.585 5.29705 108.834C5.13998 109.609 4.88542 110.286 4.62544 110.92C4.09465 112.182 3.59635 113.259 3.50427 114.261C3.46094 114.76 3.47719 115.177 3.63968 115.583C3.73176 115.816 4.03507 116.211 4.3113 116.352C4.64169 116.515 4.7446 116.536 5.06957 116.428C5.2808 116.358 5.5787 116.195 6.02825 116.043C6.42905 115.892 7.29023 115.745 8.01059 116.19L8.89886 116.737L8.55764 117.674C8.03226 119.109 7.47439 120.528 6.9111 121.947C6.36405 123.382 5.74119 124.764 5.44329 126.112C5.29705 126.789 5.23206 127.455 5.30789 128.095C5.33497 128.252 5.35122 128.414 5.39455 128.566L5.44329 128.761L5.54078 129.032C5.64369 129.259 5.78452 129.524 5.99575 129.763C6.77569 130.711 8.27599 131.258 9.15342 130.488L9.99294 129.757L10.1067 130.835C10.2258 131.962 9.78712 132.937 9.37007 133.76C8.93136 134.589 8.50347 135.352 8.35182 136.154C8.18391 136.95 8.43306 137.692 9.05593 138.115C9.34841 138.315 9.68963 138.375 9.95503 138.255C10.1229 138.217 10.3071 137.99 10.8541 138.033C11.152 138.077 11.4012 138.364 11.4445 138.591C11.4987 138.813 11.477 138.97 11.477 139.084C11.2766 142.735 11.0437 146.385 10.9462 150.041L9.74921 149.57L14.2826 143.558L15.4092 142.063L15.9075 143.926C16.6658 146.77 15.9779 149.532 15.615 151.975C15.4363 153.188 15.3442 154.39 15.4579 155.517C15.5717 156.638 15.9021 157.651 16.4924 158.426L14.4451 158.29C16.2379 156.367 17.6136 154.055 18.4477 151.579L19.3631 148.855L21.0258 151.244C22.1416 152.847 22.6724 154.726 22.9053 156.47C23.1382 158.225 23.1328 159.904 23.1869 161.497C23.2194 162.287 23.2519 163.073 23.344 163.815C23.3819 164.178 23.4469 164.573 23.5065 164.887C23.5552 165.125 23.6581 165.407 23.7719 165.613C23.8802 165.824 24.0156 165.965 24.0264 165.97C24.0698 165.949 23.761 165.954 23.9127 165.938C23.6473 166.035 23.8206 166.019 23.8965 165.846C24.0048 165.667 24.1239 165.369 24.2323 165.028L24.4272 164.41C24.541 164.091 24.6493 163.874 24.7847 163.614C25.0718 163.116 25.413 162.601 26.1009 162.157C26.7725 161.675 27.9966 161.589 28.7657 162.076C29.5402 162.542 29.8435 163.078 30.0926 163.457C31.0242 164.941 31.7554 166.582 32.2375 168.272C32.4866 169.106 32.6383 170.033 32.7899 170.731C32.9416 171.457 33.1637 172.02 33.4507 172.286C33.4507 172.302 33.6024 172.399 33.4886 172.334C33.5645 172.378 33.6836 172.459 33.7269 172.475C33.7107 172.454 33.7757 172.497 33.8732 172.508C34.0465 172.54 34.274 172.513 34.4906 172.432C34.9402 172.269 35.2489 171.896 35.2814 171.598L35.471 169.848L36.8738 170.699C37.345 170.98 37.7566 171.327 38.0924 171.733C38.412 172.145 38.6612 172.573 38.8507 173.006C39.2244 173.867 39.4032 174.707 39.5819 175.503C39.7552 176.299 39.9069 177.068 40.1398 177.767C40.2535 178.114 40.3943 178.433 40.5568 178.736C40.7302 179.023 40.9306 179.273 41.158 179.489C41.4072 179.673 41.6509 179.868 41.9434 179.939C42.2196 180.02 42.4904 180.02 42.6854 179.928C43.0808 179.782 43.4383 178.861 43.942 178.195C44.1966 177.843 44.4944 177.496 44.8844 177.231C45.2906 176.971 45.7077 176.776 46.2818 176.879C46.7693 176.982 47.1647 177.279 47.4301 177.659C47.7063 178.027 47.755 178.661 47.3813 179.002L47.1647 178.807C47.598 178.227 46.7909 177.507 46.1897 177.485C45.9514 177.442 45.5669 177.615 45.3394 177.832C45.0794 178.054 44.8736 178.352 44.6894 178.671C44.5053 178.996 44.3482 179.354 44.1803 179.722C44.007 180.091 43.7903 180.578 43.2758 180.914C42.7667 181.239 42.1763 181.282 41.6726 181.19C41.1472 181.12 40.7193 180.843 40.3023 180.578C39.9123 180.275 39.5765 179.923 39.3003 179.533C39.0457 179.143 38.8291 178.736 38.6557 178.33C38.3145 177.518 38.0924 176.711 37.8541 175.947C37.6212 175.183 37.3883 174.458 37.0634 173.856C36.9009 173.559 36.7167 173.309 36.5217 173.093C36.3159 172.892 36.0938 172.746 35.8555 172.621L37.4425 171.722C37.3775 173.087 36.4134 174.1 35.3735 174.555C34.8373 174.788 34.2361 174.913 33.597 174.853C33.2882 174.826 32.9633 174.75 32.5679 174.571L32.27 174.414C31.9937 174.23 31.9721 174.208 31.8258 174.089C30.8726 173.25 30.5476 172.177 30.3093 171.343C30.0764 170.46 29.9356 169.773 29.681 169.052C29.1935 167.622 28.5165 166.279 27.6499 165.039C27.4549 164.746 27.2708 164.584 27.3304 164.643C27.3845 164.719 27.6824 164.681 27.677 164.665C27.677 164.665 27.5145 164.828 27.4116 165.039C27.3629 165.136 27.2979 165.288 27.2762 165.358L27.1137 165.911C26.9837 166.344 26.8321 166.821 26.5342 167.357C26.2092 167.882 25.8084 168.516 24.7631 168.895C24.1402 169.155 22.9432 169.058 22.3095 168.57C21.6433 168.121 21.2642 167.59 20.9933 167.081C20.7225 166.566 20.5438 166.068 20.4301 165.51C20.3434 165.022 20.2784 164.611 20.2297 164.161C20.1213 163.284 20.0942 162.434 20.0617 161.594C19.9588 158.285 20.1267 155.116 18.6102 152.885L21.1883 152.543C20.143 155.392 18.491 157.998 16.3733 160.148L15.2521 161.285L14.3259 160.012C13.3781 158.707 12.999 157.142 12.9285 155.712C12.8527 154.266 13.0423 152.89 13.2969 151.579C13.806 149.007 14.5263 146.613 14.0876 144.365L15.7125 144.733L10.7783 150.42L9.35382 152.061L9.58131 149.954C9.97669 146.315 10.2367 142.67 10.5292 139.024C10.5616 138.737 10.4696 138.857 10.6646 138.938C10.7404 138.922 10.5183 138.987 10.2692 139.1C9.67338 139.344 9.0126 139.171 8.55764 138.867C8.08642 138.564 7.73978 138.12 7.53396 137.6C7.33898 137.085 7.33898 136.506 7.42022 136.013C7.59354 135 8.08101 134.139 8.44389 133.337C8.8122 132.536 9.08301 131.723 8.95844 131.003L9.90628 131.35C9.20217 132.021 8.13517 132.26 7.24149 132.065C6.33697 131.891 5.53537 131.431 4.89083 130.797C4.57128 130.483 4.29505 130.099 4.06215 129.644L3.94299 129.384C3.86716 129.21 3.86175 129.156 3.81842 129.032C3.74259 128.82 3.69926 128.604 3.65051 128.387C3.47719 127.515 3.49886 126.638 3.6126 125.814C3.85633 124.151 4.39796 122.689 4.82584 121.238C5.26997 119.775 5.71952 118.318 6.20157 116.872L6.74319 118.356C6.88943 118.454 7.04109 118.394 6.83527 118.459L6.00117 118.838L5.70327 118.952C5.52995 119.006 5.42704 119.028 5.2808 119.06C5.00999 119.109 4.73376 119.114 4.46295 119.098C3.92133 119.049 3.43386 118.876 3.0114 118.638C2.16105 118.129 1.57609 117.479 1.16987 116.509C0.850313 115.702 0.779902 114.776 0.888227 113.991C1.09404 112.382 1.78732 111.087 2.26937 109.966C2.5131 109.403 2.71892 108.856 2.83266 108.358C2.89224 108.136 2.92474 107.762 2.91932 107.87C2.94098 107.93 2.95723 108.027 3.10347 108.168C3.22805 108.282 3.39595 108.298 3.38512 108.293C3.36887 108.271 3.04931 108.325 2.61601 108.369C2.36145 108.379 2.19354 108.417 1.70608 108.314C1.58151 108.287 1.60317 108.287 1.54359 108.271L1.51651 108.26L1.38111 108.211L1.25112 108.152C1.08321 108.071 0.915308 107.957 0.774485 107.827C0.205779 107.285 0.0812055 106.684 0.0162105 106.229C-0.0433682 105.763 -0.0108707 105.33 0.0432918 104.978C0.216612 103.586 0.547003 102.221 1.08863 100.937C2.13938 98.3647 3.82925 96.0899 5.95242 94.3621L6.95984 95.4941C6.71069 95.6999 6.42905 95.8678 6.11491 95.9653C5.80076 96.052 5.47579 96.0845 5.1779 96.0466C4.57128 95.9762 4.06756 95.6999 3.65593 95.3695C3.2443 95.0337 2.9139 94.6167 2.68642 94.14C2.56726 93.8963 2.48602 93.6634 2.43186 93.3764C2.37228 93.0297 2.3777 92.916 2.39394 92.591C2.4806 91.5836 2.96265 90.7007 3.53677 89.9966C4.11631 89.2817 4.81501 88.7184 5.5137 88.1768L5.71952 88.3609Z" fill="#153051"/>
<path d="M131.29 145.995C131.317 144.582 131.414 143.173 131.544 141.765C131.219 141.787 130.894 141.825 130.569 141.83C129.806 141.846 129.145 141.711 128.565 141.473C128.403 142.946 128.289 144.419 128.23 145.898C128.197 146.694 128.186 147.501 128.181 148.308C128.181 148.541 128.181 148.758 128.181 148.952C128.132 148.925 128.078 148.893 128.035 148.866L126.009 147.691L123.507 146.239L123.669 149.131C123.837 152.143 123.815 155.165 123.583 158.176C122.662 157.18 121.849 156.08 121.216 154.883L119.201 151.092L118.605 155.311L117.397 163.853C117.3 164.584 117.224 165.282 117.072 165.597C117.023 165.737 116.899 165.84 116.899 165.84C116.856 165.873 116.758 165.911 116.596 165.889C116.444 165.878 116.249 165.808 116.092 165.71C116 165.672 115.756 165.445 115.637 165.266C115.334 164.86 115.101 164.275 114.862 163.603L111.336 153.822L112.685 164.102C112.831 165.212 112.826 166.349 112.658 167.476C112.571 168.034 112.441 168.592 112.273 169.133C112.192 169.41 112.105 169.643 111.986 169.946C111.9 170.173 111.786 170.406 111.661 170.601C111.537 170.802 111.391 170.975 111.255 171.089C111.131 171.202 110.973 171.251 110.952 171.262C110.99 171.278 110.871 171.267 110.8 171.262C110.86 171.267 110.768 171.257 110.768 171.257C110.719 171.251 110.676 171.219 110.621 171.186C110.513 171.116 110.399 170.964 110.307 170.775C110.118 170.39 110.085 169.946 110.112 169.323C110.129 168.727 110.194 168.023 109.988 167.254L109.094 163.901L108.569 167.303L107.87 171.825C107.637 173.32 107.415 174.864 107.133 176.315C107.058 176.667 106.96 176.998 106.825 177.29C106.678 177.594 106.527 177.805 106.278 178C105.828 178.357 105.151 178.444 104.512 178.298C104.176 178.216 103.911 178.119 103.602 177.929C103.31 177.756 103.039 177.534 102.79 177.29C102.28 176.797 101.847 176.196 101.403 175.579L100.742 174.658L100.596 175.768C100.471 176.711 100.276 177.637 99.9839 178.509C99.8323 178.942 99.6535 179.365 99.4315 179.755C99.1932 180.166 98.9819 180.475 98.6353 180.833C98.072 181.428 97.2216 181.84 96.3875 181.943C95.548 182.057 94.7031 181.84 94.1831 181.282L93.5928 180.648L93.2569 181.482C92.6178 183.059 91.6862 184.711 90.3809 185.252C90.2238 185.306 90.0505 185.361 89.9314 185.371C89.8664 185.398 89.4331 185.404 89.406 185.388C89.081 185.355 88.7344 185.241 88.3769 185.073C87.6457 184.754 86.8983 184.18 85.8042 183.882C85.2788 183.746 84.7047 183.681 84.0818 183.79C83.7731 183.844 83.4427 183.958 83.1394 184.142C83.004 184.212 82.8036 184.38 82.679 184.494L82.5599 184.613C82.4299 184.759 82.4245 184.77 82.3649 184.857C81.9966 185.409 81.8557 185.794 81.7312 185.859C81.6228 185.962 81.4658 186.01 81.2058 186.021C80.9512 186.021 80.6371 185.945 80.3446 185.815C80.1063 185.718 79.7651 185.485 79.4455 185.236C78.7847 184.748 78.0319 184.006 76.8349 183.617L75.952 183.329L75.4483 184.169L74.2297 186.2C72.7564 185.686 71.3536 184.954 70.1404 183.979L69.2034 183.227L68.3747 184.109L66.2461 186.368C66.0349 186.601 65.7912 186.855 65.6395 187.012C65.5366 186.899 65.4499 186.774 65.3091 186.563L64.8812 185.913L64.0309 184.613L62.3248 182.019L60.6295 179.441L60.0824 182.447C59.6383 184.884 58.9667 187.278 58.1759 189.629C57.2497 188.708 56.4969 187.581 56.0311 186.335C55.8632 185.902 55.7386 185.458 55.6357 185.003C55.5382 184.526 55.4786 184.153 55.4515 183.611C55.4244 183.113 55.3703 182.49 55.1591 181.9C55.0453 181.602 54.9045 181.277 54.5903 180.963C54.4333 180.811 54.2329 180.665 53.9891 180.589C53.8862 180.545 53.7129 180.524 53.5667 180.513C53.4204 180.508 53.4204 180.518 53.3392 180.524C52.7976 180.573 52.3805 180.898 52.1585 181.271C51.9526 181.634 51.9039 181.943 51.8551 182.225C51.7685 182.782 51.7522 183.259 51.6331 183.633C51.5302 183.979 51.3406 184.191 51.059 184.223C50.7556 184.266 50.3332 184.104 49.9865 183.855C49.6453 183.6 49.3258 183.248 49.1524 182.874C48.9683 182.463 48.8545 181.965 48.7354 181.477C48.6162 180.984 48.4862 180.475 48.2858 179.982C48.0963 179.495 47.7713 179.002 47.3705 178.677L47.1647 178.883C47.858 179.592 47.9609 180.605 48.1017 181.596C48.1775 182.1 48.2425 182.614 48.4212 183.151C48.6271 183.725 48.9791 184.18 49.4124 184.57C49.8565 184.938 50.3982 185.274 51.1185 185.274C51.8876 185.279 52.543 184.662 52.7542 184.05C52.9926 183.465 53.0467 182.918 53.1659 182.485C53.22 182.268 53.2959 182.078 53.35 182.008C53.3879 181.937 53.4421 181.97 53.4042 181.965C53.4475 181.965 53.5721 181.954 53.5558 181.97C53.5342 181.986 53.4963 181.965 53.5071 181.975C53.5071 181.975 53.5125 181.986 53.5342 182.013C53.5829 182.062 53.6588 182.214 53.7075 182.392C53.8158 182.772 53.8429 183.172 53.8375 183.687C53.8321 184.158 53.8808 184.797 53.9621 185.317C54.0487 185.859 54.1679 186.4 54.3412 186.926C54.9966 189.033 56.2965 190.95 58.073 192.353L59.1562 193.209L59.7087 191.882C60.5374 189.889 61.1873 187.825 61.7615 185.74L61.9185 185.989L62.7526 187.3L63.1697 187.955C63.3051 188.166 63.5055 188.475 63.7438 188.74C63.9875 189.016 64.3125 189.331 64.8487 189.553C65.4012 189.775 66.0999 189.753 66.6253 189.488C67.1235 189.244 67.3944 188.952 67.6056 188.74L68.1526 188.172L69.5067 186.736C71.0232 187.76 72.7077 188.534 74.4896 188.946L75.4429 189.168L75.8979 188.356L77.0245 186.335C77.3603 186.541 77.7286 186.796 78.1402 187.083C78.5464 187.354 78.958 187.63 79.5593 187.852C80.1009 188.047 80.6858 188.161 81.3249 188.123C81.9532 188.079 82.7115 187.825 83.2098 187.251C83.7189 186.666 83.8273 186.146 83.9681 185.962C83.9681 185.962 84.0277 185.88 83.9735 185.94L84.0872 185.815C84.1306 185.783 84.0981 185.799 84.1576 185.761C84.2335 185.707 84.3364 185.653 84.461 185.621C84.7209 185.556 85.0622 185.556 85.4088 185.626C86.075 185.734 86.8333 186.205 87.7595 186.568C88.2253 186.747 88.7506 186.904 89.3247 186.92C89.7472 186.915 89.7635 186.915 90.1372 186.85C90.4622 186.796 90.7113 186.693 90.9713 186.585C91.9895 186.097 92.6503 185.268 93.154 184.456C93.5223 183.844 93.7986 183.21 94.0531 182.577C94.8277 183.01 95.743 183.113 96.55 182.967C97.6224 182.777 98.5865 182.273 99.3502 181.466C99.6698 181.125 100.016 180.643 100.249 180.21C100.498 179.76 100.693 179.284 100.851 178.807C101.056 178.2 101.186 177.577 101.3 176.96C101.555 177.301 101.831 177.642 102.14 177.957C102.427 178.249 102.746 178.52 103.104 178.742C103.439 178.964 103.889 179.154 104.295 179.251C105.124 179.457 106.115 179.397 106.895 178.818C107.263 178.552 107.578 178.141 107.762 177.756C107.957 177.361 108.076 176.955 108.173 176.565L109.099 171.999C109.224 172.177 109.37 172.351 109.554 172.513C109.744 172.67 109.961 172.811 110.21 172.892C110.351 172.941 110.421 172.963 110.627 172.995C110.714 173.001 110.746 173.017 110.936 173.017C112.116 172.968 112.734 172.242 113.178 171.663C113.4 171.354 113.579 171.035 113.736 170.693C113.86 170.428 114.001 170.092 114.115 169.778C114.348 169.155 114.537 168.511 114.678 167.855C114.694 167.785 114.694 167.709 114.705 167.639C114.727 167.655 114.738 167.671 114.759 167.682C115.198 167.985 115.691 168.196 116.249 168.283C116.796 168.37 117.446 168.321 118.042 168.007C118.675 167.676 119.044 167.194 119.304 166.691C119.769 165.694 119.786 164.93 119.932 164.248L120.755 159.303C121.665 160.451 122.694 161.507 123.853 162.417L125.836 163.977L126.209 161.448C126.681 158.263 126.908 155.04 126.876 151.818C127.076 151.942 127.314 152.072 127.731 152.251C128.111 152.37 128.484 152.522 129.243 152.37L129.443 152.316C129.611 152.262 129.827 152.164 129.93 152.099C130.174 151.953 130.391 151.764 130.542 151.579C131.16 150.794 131.209 150.166 131.279 149.624C131.328 149.039 131.29 148.66 131.29 148.281C131.274 147.517 131.274 146.759 131.29 145.995Z" fill="#153051"/>
<path d="M135.747 68.1365C135.991 68.8136 136.202 69.496 136.381 70.1893C136.592 70.9096 136.766 71.5379 136.338 71.7979C136.105 71.9658 135.276 71.8846 134.572 71.7762C134.193 71.7437 133.781 71.6571 133.256 71.8466C132.709 72.0579 132.346 72.6483 132.4 73.2224C132.449 73.7694 132.687 74.1431 132.882 74.4789L133.456 75.416L134.583 77.2791C135.319 78.5249 136.013 79.7869 136.619 81.0705C137.258 82.4571 137.795 83.8707 138.185 85.2952C138.775 86.021 139.17 86.8984 139.284 87.8138C140.015 88.285 140.676 88.8645 141.256 89.5415L141.483 89.1461L141.44 88.7616C141.061 85.6148 139.831 82.7171 138.255 80.1823C137.475 78.904 136.63 77.6908 135.769 76.4938L134.464 74.7227C134.047 74.1431 133.478 73.5203 133.445 73.1249C133.418 72.9678 133.5 72.8107 133.63 72.7512C133.787 72.6645 134.133 72.6645 134.475 72.697C134.821 72.7295 135.189 72.7891 135.596 72.8053C136.007 72.7945 136.441 72.8324 136.971 72.4316C137.064 72.3504 137.101 72.2962 137.172 72.2258C137.323 72.0254 137.334 71.9712 137.394 71.825C137.481 71.5758 137.491 71.3321 137.481 71.1155C137.459 70.6713 137.351 70.3084 137.264 69.9564C137.096 69.236 136.89 68.5211 136.657 67.8224C135.78 64.9951 134.605 62.2436 133.142 59.6493C131.696 57.0495 130.022 54.5796 128.165 52.2886C127.217 51.1349 126.301 50.0571 125.256 48.9197L122.207 45.7837C120.154 43.7147 118.08 41.6619 115.962 39.6579C113.839 37.6539 111.678 35.6878 109.451 33.7812L109.24 33.9817C111.006 36.3215 112.831 38.6017 114.705 40.844C116.579 43.081 118.497 45.2799 120.436 47.4573L123.377 50.6908L126.171 53.9514C128.029 56.1449 129.936 58.3006 131.599 60.6296C133.267 62.9586 134.756 65.4392 135.747 68.1365Z" fill="#153051"/>
<path d="M43.07 264.167C42.3334 264.167 41.5968 263.956 40.8872 263.544C39.4086 262.683 38.1899 260.95 37.7891 259.13C37.4967 257.819 37.4804 256.503 37.4642 255.225C37.4479 253.984 37.4317 252.809 37.1771 251.688C36.4459 248.454 33.7215 245.833 31.5334 243.726L23.3711 235.872C21.8437 234.405 20.2622 232.883 19.0164 231.074C17.4132 228.755 16.46 226.139 15.5446 223.431C12.8256 215.383 10.5671 206.776 12.4194 198.343C12.9773 195.803 13.9035 193.36 14.8784 190.874C18.2365 182.333 22.1308 173.499 29.4752 167.568C29.8922 167.227 30.5043 167.297 30.8455 167.714C31.1867 168.131 31.1217 168.749 30.6993 169.085C23.7231 174.718 19.9534 183.291 16.6874 191.589C15.7396 194.005 14.8459 196.366 14.3205 198.766C12.5711 206.733 14.7647 215.031 17.3915 222.808C18.2636 225.376 19.1627 227.851 20.625 229.963C21.7625 231.615 23.2682 233.061 24.7306 234.464L32.8928 242.318C35.2706 244.603 38.2279 247.452 39.089 251.255C39.3869 252.576 39.4086 253.909 39.4248 255.192C39.4411 256.422 39.4573 257.586 39.7065 258.702C39.9935 259.996 40.8656 261.264 41.8838 261.86C42.4904 262.212 43.0862 262.304 43.6766 262.125C44.1803 261.973 44.6949 261.6 45.2473 260.988C47.5492 258.447 48.1992 254.483 46.8289 251.341C45.3719 247.994 42.1925 245.947 38.8291 243.775C37.3992 242.854 35.9205 241.901 34.5827 240.834C30.4555 237.551 27.5903 233.197 24.541 228.252C23.279 226.204 22.2445 224.482 21.4212 222.543C19.4064 217.798 18.8648 212.095 19.7747 205.114C20.1972 201.853 20.8796 198.592 21.8004 195.424C24.0969 187.538 27.9424 180.069 31.7609 173.174C32.0208 172.703 32.6112 172.535 33.0878 172.795C33.559 173.055 33.727 173.651 33.467 174.122C29.7027 180.914 25.9167 188.264 23.6744 195.971C22.7807 199.042 22.1199 202.205 21.7083 205.368C20.8471 211.998 21.34 217.37 23.214 221.785C23.9831 223.594 24.9797 225.251 26.1984 227.228C29.1502 232.011 31.9071 236.224 35.7905 239.306C37.0579 240.314 38.4932 241.24 39.8798 242.134C43.3354 244.365 46.9155 246.672 48.6054 250.556C50.2736 254.374 49.4828 259.2 46.6826 262.287C45.8864 263.17 45.0848 263.723 44.2399 263.983C43.8499 264.107 43.4599 264.167 43.07 264.167Z" fill="#153051"/>
<path d="M101.381 270C98.0016 270 94.9739 268.294 92.4499 266.609C91.7079 266.111 90.9496 265.553 90.5543 264.649C90.2347 263.918 90.2509 263.143 90.2618 262.574C90.4297 254.65 91.5779 246.678 92.6937 238.97C94.064 229.486 95.4831 219.678 95.0335 210.01C94.6652 202.102 93.127 194.422 90.928 185.317C90.8034 184.792 91.123 184.266 91.6483 184.142C92.1791 184.022 92.6991 184.342 92.8237 184.862C95.0443 194.075 96.6042 201.864 96.9779 209.923C97.4383 219.775 96.003 229.676 94.6219 239.252C93.5169 246.9 92.3741 254.813 92.2116 262.618C92.2008 263.138 92.2062 263.56 92.3416 263.874C92.5258 264.297 93.0078 264.643 93.5332 264.99C95.873 266.55 98.7057 268.131 101.609 268.05C104.165 267.98 107.036 266.073 107.068 263.452C107.074 262.829 106.879 262.027 106.316 261.648C105.552 261.123 104.349 261.578 103.705 262.325C102.887 263.268 102.562 264.665 102.275 265.9C102.15 266.425 101.647 266.75 101.105 266.626C100.58 266.501 100.255 265.981 100.379 265.456C100.704 264.075 101.105 262.358 102.237 261.047C103.45 259.644 105.72 258.88 107.415 260.034C108.433 260.727 109.035 262.011 109.024 263.473C108.98 267.249 105.189 269.897 101.674 269.995C101.566 269.995 101.468 270 101.381 270Z" fill="#153051"/>
<path d="M100.899 263.755C100.666 263.755 100.439 263.674 100.255 263.511C99.8594 263.159 99.2203 262.991 98.5378 262.813C97.4762 262.531 96.2684 262.211 95.5751 261.063C94.9902 260.105 95.0931 258.983 95.1581 258.247C95.5047 254.315 96.068 250.35 96.6096 246.515C96.8859 244.544 97.1675 242.572 97.4167 240.595C97.85 237.194 98.2074 233.792 98.5595 230.386L100.136 215.215C100.406 212.62 100.683 209.939 100.829 207.296C101.306 198.489 100.325 189.726 97.9095 181.244C97.7633 180.724 98.0612 180.188 98.5811 180.042C99.1065 179.884 99.6373 180.193 99.7835 180.713C102.259 189.401 103.266 198.381 102.773 207.404C102.627 210.091 102.345 212.799 102.075 215.42L100.498 230.591C100.141 234.014 99.7835 237.432 99.3502 240.844C99.0957 242.827 98.8195 244.809 98.5378 246.786C98.0016 250.594 97.4437 254.531 97.0971 258.415C97.0375 259.059 97.0104 259.671 97.2433 260.056C97.5304 260.527 98.2291 260.711 99.0361 260.928C99.8648 261.144 100.802 261.394 101.544 262.049C101.945 262.406 101.988 263.024 101.63 263.425C101.436 263.647 101.17 263.755 100.899 263.755Z" fill="#153051"/>
<path d="M73.9805 64.4429C73.1789 64.4429 72.3394 64.21 71.5812 63.7497C70.4762 63.0889 69.6692 62.0706 69.0247 61.1661C63.7763 53.7567 62.3573 43.8341 65.32 35.2494C65.7533 32.3408 68.1852 31.3767 69.9671 30.6726C74.2459 28.9774 79.0664 31.8263 81.0758 35.4444C83.3019 39.4524 83.0474 44.2728 82.6574 47.5497C81.9316 53.7079 80.2472 58.5284 77.5119 62.2981C77.0191 62.9751 76.4504 63.6576 75.6325 64.0692C75.1342 64.3184 74.5655 64.4429 73.9805 64.4429ZM72.6698 32.1079C72.0036 32.1079 71.3374 32.2271 70.6929 32.4817C68.4776 33.3591 67.4486 34.0199 67.2427 35.6068L67.194 35.8018C64.3938 43.8233 65.7045 53.1067 70.6171 60.0395C71.1695 60.8195 71.7924 61.6048 72.5886 62.0815C73.3198 62.5256 74.1755 62.6177 74.7659 62.3252C75.1884 62.114 75.5404 61.7023 75.9412 61.1499C78.476 57.6618 80.0413 53.1338 80.7292 47.3168C81.0867 44.3053 81.3304 39.8965 79.3806 36.3868C78.0861 34.0632 75.3888 32.1079 72.6698 32.1079Z" fill="#153051"/>
<path d="M61.7452 67.27C60.1204 67.27 58.4251 66.2409 56.9843 64.3344C54.5795 61.1605 53.0467 57.0766 52.5484 52.5162C52.1476 48.8494 52.3914 44.7655 53.2959 40.0371C54.0325 36.1753 55.5111 33.9926 57.8293 33.3589C59.3729 32.9364 61.144 33.3535 62.6768 34.5071C63.9442 35.455 64.8758 36.7603 65.6937 37.9085L64.1121 39.0405C63.3376 37.9573 62.5306 36.8361 61.5069 36.0616C60.4778 35.2871 59.2971 34.9729 58.3438 35.2383C56.8381 35.65 55.7819 37.3886 55.2132 40.4054C54.3466 44.9442 54.1083 48.8331 54.4875 52.3049C54.9478 56.5188 56.3507 60.2668 58.5388 63.1591C59.1129 63.9119 60.5862 65.6343 62.1623 65.2714C62.8447 65.1089 63.4676 64.5294 63.9334 64.0365C65.3091 62.585 66.4194 60.8247 67.1344 58.9452L68.9543 59.6439C68.1472 61.7563 66.9015 63.7386 65.3416 65.3797C64.6917 66.0622 63.7926 66.8909 62.6064 67.1671C62.3248 67.2375 62.0377 67.27 61.7452 67.27Z" fill="#153051"/>
<path d="M69.7991 47.3708C68.6184 49.8352 68.8784 52.5812 69.9454 55.0564C70.6712 56.7355 72.2581 58.642 74.1646 57.1796C77.0461 54.9698 77.4686 44.9118 72.4206 45.0797C70.1133 45.1555 69.9075 48.3674 69.8858 50.041C69.8641 51.6442 69.8966 55.4572 72.101 55.7497C74.3217 56.0476 74.3055 52.7112 74.495 51.3409C74.6846 49.9381 74.4246 47.1379 72.4423 47.0729C72.1119 47.0621 71.7544 47.2625 71.6027 47.5549C70.8066 49.0715 71.0611 51.2813 71.1153 52.9279C71.1586 54.179 73.103 54.1844 73.0651 52.9279C73.0272 51.7579 72.7185 49.6131 73.2872 48.5353C73.0056 48.6978 72.7239 48.8548 72.4477 49.0173C72.0144 49.0011 72.6643 50.1385 72.6806 50.2956C72.7293 50.8589 72.5073 51.5359 72.426 52.1046C72.3664 52.5 72.4044 53.2745 72.1931 53.5724C72.0306 53.8053 72.1498 53.1445 72.1065 52.7979C71.9765 51.7471 71.8032 50.7722 71.8519 49.6998C71.879 49.0986 71.8248 48.2266 72.1606 47.7012C72.1552 47.1487 72.3664 47.0133 72.7943 47.3004C73.4443 47.3762 73.8126 47.8095 73.8992 48.5894C74.273 49.586 74.3325 50.783 74.2567 51.8392C74.2134 52.4675 73.9913 54.7423 73.3414 55.1431C72.4098 55.7064 71.7706 54.4336 71.5432 53.8215C71.2886 53.1283 71.1424 52.4458 71.0503 51.72C70.8986 50.5285 70.9636 49.4506 71.489 48.3457C72.0252 47.23 70.3462 46.2388 69.7991 47.3708Z" fill="#153051"/>
<path d="M58.3926 48.2265C57.1577 51.0863 57.4068 56.5675 60.0445 58.7124C63.3213 61.3826 64.1175 54.4931 64.0742 52.6245C64.0363 50.9347 63.6084 48.8006 62.2706 47.6362C61.404 46.8779 60.1691 46.7046 59.4 47.6578C58.3655 48.9361 58.5875 51.46 58.8259 52.9387C59.0046 54.0382 59.4 56.5134 60.7757 56.795C61.1982 56.8817 61.6531 56.7409 61.8752 56.3455C62.8555 54.6014 62.3952 51.8229 62.0485 49.9651C61.821 48.7357 59.9416 49.2556 60.1691 50.4851C60.3912 51.6821 60.8461 54.2006 60.1908 55.3597C60.5591 55.2081 60.9219 55.0618 61.2903 54.9102C61.794 55.4247 61.7344 55.1539 61.1115 54.0977C60.9599 53.659 60.8407 53.2095 60.754 52.7545C60.6024 51.9367 60.5645 51.0755 60.6511 50.2468C60.9111 47.6687 61.8752 50.653 62.0214 51.4979C62.211 52.5758 62.1189 53.6915 61.9348 54.7585C61.8915 55.0131 61.5448 57.0875 61.3498 57.1038C60.8624 57.1579 60.3587 55.6414 60.2016 55.1918C59.622 53.4857 59.335 50.9076 60.0716 49.196C60.5645 48.0695 58.8854 47.0783 58.3926 48.2265Z" fill="#153051"/>
<path d="M42.1222 64.4104C46.8451 72.6431 57.9214 80.2746 67.7952 79.2184C77.6094 78.1677 86.9362 70.4278 91.8542 62.2655C92.5041 61.1877 90.8196 60.2074 90.1697 61.2798C85.6255 68.83 77.7286 75.1996 68.9488 77.0302C59.4975 79.0018 48.2967 71.2403 43.8066 63.4246C43.1783 62.3414 41.4939 63.3217 42.1222 64.4104Z" fill="#153051"/>
<path d="M63.8467 84.9052C62.9692 84.9052 62.0918 84.6127 61.431 84.0169C60.4886 83.1666 60.1203 81.9804 60.012 80.6751C59.9145 80.8268 59.817 80.973 59.7033 81.1138C58.9504 82.0779 57.8888 82.625 56.8651 82.5546C55.3973 82.4571 54.3628 81.2059 53.9891 80.0035C53.7725 79.3102 53.7183 78.5953 53.7345 77.8966C52.9546 78.7199 52.023 79.3102 50.9181 79.3048C49.342 79.2452 48.1937 77.8262 47.8687 76.4505C47.6358 75.4755 47.7171 74.4898 47.8687 73.5582C46.8342 74.0836 45.6373 74.3002 44.4998 74.1323C44.2128 74.0944 43.8391 74.0131 43.5412 73.7532C43.2541 73.4986 43.1241 73.1682 43.0266 72.8811C42.7179 71.9766 41.8675 68.9056 43.877 67.2483C44.0882 67.0749 44.3915 67.1074 44.5648 67.3132C44.7327 67.5191 44.7057 67.8278 44.4998 68.0011C43.2812 68.9977 43.4166 71.018 43.9474 72.567C44.007 72.7403 44.0774 72.9299 44.1803 73.022C44.2832 73.114 44.4836 73.152 44.6407 73.1736C45.9135 73.3578 47.2621 72.9732 48.2533 72.15C48.4104 72.0146 48.6324 71.9983 48.8166 72.1066C48.9953 72.215 49.0874 72.4208 49.0441 72.6266C48.8058 73.7694 48.5404 75.0639 48.8166 76.2338C49.0495 77.225 49.8782 78.2974 50.956 78.3353C52.1422 78.4111 53.0846 77.2846 53.9404 76.1038C54.0703 75.9251 54.3032 75.8547 54.5091 75.9359C54.7149 76.0117 54.8395 76.2176 54.8232 76.4396C54.7149 77.5445 54.6011 78.6874 54.9207 79.7219C55.1861 80.5776 55.9281 81.5255 56.9301 81.5905C57.8021 81.6392 58.5063 81.0705 58.9341 80.5235C59.4703 79.8302 59.7791 78.9582 60.0716 78.1132C60.1528 77.8803 60.3857 77.7395 60.6348 77.7991C60.8732 77.8478 61.0356 78.0699 61.0194 78.3136C60.8732 80.1335 60.8244 82.1646 62.081 83.302C63.0722 84.2065 64.827 84.1415 65.7586 83.1774C66.6794 82.2188 66.7931 80.6968 66.7823 79.1911C66.7823 78.9257 66.9935 78.7036 67.2589 78.6982C67.546 78.7415 67.7464 78.904 67.7572 79.1694C67.7951 80.296 68.4342 81.4117 69.3929 82.0075C70.3462 82.6087 71.6298 82.7008 72.6643 82.235C73.2818 81.9588 73.753 81.5255 73.9859 81.0164C74.3867 80.1443 74.1376 79.0719 73.8234 77.9562C73.753 77.7016 73.8938 77.4362 74.1484 77.3604C74.3975 77.29 74.6738 77.4254 74.755 77.6745C75.0421 78.552 75.7516 79.2832 76.6994 79.6894C77.6364 80.0848 78.633 80.0956 79.4455 79.7056C80.2579 79.3157 80.8916 78.4924 81.1462 77.5066C81.3628 76.6454 81.2708 75.7843 80.8916 75.1018C80.8212 74.9989 80.7508 74.8906 80.6858 74.7823C80.5558 74.5602 80.6208 74.2677 80.8375 74.1269C81.0541 73.9861 81.3466 74.0348 81.4982 74.246C81.5795 74.3544 81.6499 74.4681 81.7149 74.5818C82.2728 75.3726 83.0852 75.9305 83.9355 76.0984C84.943 76.2988 86.0316 75.898 86.5841 75.1451C86.9741 74.6035 87.1582 73.829 87.1311 72.8541C87.0932 71.6029 86.7574 70.3626 86.1616 69.2631C86.0316 69.0248 86.1183 68.7323 86.3566 68.6023C86.5949 68.4777 86.8874 68.559 87.0174 68.7973C87.689 70.0322 88.0681 71.4242 88.1061 72.827C88.1386 74.024 87.8948 74.9989 87.3694 75.7193C86.5949 76.7917 85.1379 77.3333 83.746 77.0571C83.2152 76.9542 82.6952 76.7375 82.224 76.4234C82.2403 76.8567 82.1915 77.3062 82.0832 77.7504C81.7582 79.034 80.9458 80.0685 79.8625 80.5885C78.7955 81.0976 77.501 81.0976 76.3095 80.5885C75.887 80.4097 75.5024 80.1714 75.1612 79.8952C75.1721 80.4206 75.0908 80.9297 74.8633 81.428C74.5275 82.1538 73.883 82.7604 73.0489 83.1287C71.7057 83.7245 70.1079 83.6107 68.8675 82.8362C68.3476 82.5112 67.9089 82.0834 67.5676 81.5851C67.3943 82.4354 67.0639 83.2208 66.4465 83.8545C65.7857 84.5477 64.8162 84.9052 63.8467 84.9052Z" fill="#153051"/>
<path d="M77.8314 15.9888C78.7143 16.9745 79.4617 18.074 80.1441 19.2169C80.4529 19.7856 80.8645 20.4626 80.5937 21.3184C80.4366 21.7354 79.9817 22.0333 79.5321 22.0333C79.0934 22.0387 78.7305 21.8708 78.411 21.6812C77.7664 21.2588 77.3385 20.7876 76.8782 20.2839C76.434 19.7856 76.017 19.2818 75.5728 18.8269C74.7117 17.9224 73.6446 17.1695 72.5072 17.1045L73.0001 16.4762L73.3738 17.6841L73.558 18.2907C73.6122 18.4911 73.7096 18.7456 73.6826 19.0977C73.6663 19.271 73.5851 19.466 73.4984 19.5906C73.3576 19.791 73.2114 19.8831 73.0434 19.9535C72.7131 20.0835 72.4314 20.0564 72.1768 20.0185C71.6515 19.9318 71.2561 19.6881 70.8878 19.5147C69.3496 18.7727 67.898 17.8736 66.5169 16.8825L66.9068 16.85C66.9339 16.8337 66.9068 16.747 66.9339 16.8554C66.9664 16.9366 67.0314 17.0449 67.0964 17.1749C67.1614 17.2833 67.2372 17.4999 67.2264 17.6624C67.221 17.9061 67.1018 18.074 66.9664 18.1932C66.4302 18.6157 65.7748 18.5236 65.2982 18.3719C64.2908 18.0794 63.3646 17.5541 62.6443 16.8337C63.4729 17.4295 64.41 17.8411 65.3795 18.009C65.8561 18.1228 66.349 18.0469 66.6144 17.814C66.6685 17.7653 66.6848 17.6949 66.6794 17.6841C66.6739 17.592 66.6523 17.5649 66.5927 17.4512C66.5385 17.3537 66.4573 17.2508 66.3869 17.1045C66.3056 16.9962 66.2461 16.6062 66.4735 16.4058L66.6577 16.2433L66.8635 16.3679C68.288 17.2399 69.7666 18.0144 71.2669 18.7348C71.6623 18.9135 72.0089 19.1031 72.3231 19.1356C72.4802 19.1627 72.6372 19.1464 72.7022 19.1139C72.7293 19.1085 72.7564 19.0706 72.7347 19.0977C72.7672 19.049 72.7672 19.0435 72.7726 19.0056C72.7943 18.8594 72.5939 18.3503 72.4802 17.9765L72.0902 16.7741L71.8681 16.0808L72.5885 16.1458C74.1267 16.2812 75.3183 17.2453 76.2282 18.2311C76.6886 18.7294 77.1002 19.2494 77.5227 19.7422C77.9397 20.208 78.3839 20.7497 78.828 21.0746C79.0609 21.2371 79.3209 21.3617 79.5429 21.3725C79.7542 21.3888 79.9437 21.2804 80.0467 21.0855C80.2416 20.663 80.0196 20.0022 79.7379 19.4389C79.1963 18.2365 78.5355 17.1045 77.8314 15.9888Z" fill="#153051"/>
<path d="M105.991 40.4375C107.003 41.7645 108.027 43.0752 109.143 44.3101C109.69 44.933 110.248 45.5504 110.822 46.1462L111.694 47.0345C111.992 47.354 112.273 47.5382 112.609 47.9986C112.766 48.264 112.864 48.6269 112.609 48.9952C112.382 49.3039 112.078 49.396 111.818 49.4447C111.266 49.5314 110.827 49.3797 110.383 49.2227C109.517 48.876 108.834 48.2856 108.217 47.7061C107.036 46.547 105.833 45.285 104.393 45.3067L104.761 44.5159L106.424 46.5362C106.96 47.2078 107.578 47.874 108.011 48.7406C108.222 49.1685 108.379 49.6668 108.374 50.1922C108.325 50.463 108.46 50.658 108.081 51.1292C107.578 51.4975 107.204 51.2429 106.993 51.1617L104.68 49.9213C104.328 49.6884 103.813 49.4989 103.889 49.5422C103.835 49.4393 103.949 50.0784 104.111 50.3926C104.425 51.1563 104.956 51.8929 105.2 52.8028C105.265 52.9924 105.33 53.4473 104.94 53.6423C104.626 53.7777 104.371 53.6965 104.138 53.6152C103.721 53.4419 103.326 53.2198 102.963 52.9653C102.226 52.4616 101.614 51.7954 101.17 51.0425C101.706 51.7358 102.367 52.3099 103.104 52.7432C103.477 52.9544 103.862 53.1278 104.263 53.2578C104.436 53.3119 104.653 53.3173 104.739 53.2578C104.788 53.2415 104.821 53.1332 104.734 52.9382C104.485 52.1583 103.943 51.4758 103.542 50.6471C103.445 50.4521 103.347 50.203 103.282 49.9972C103.234 49.8022 103.071 49.4176 103.412 49.0385C103.819 48.7135 104.182 48.8814 104.409 48.9518L105.026 49.2443L107.361 50.4034C107.518 50.5009 107.648 50.4359 107.502 50.5009C107.431 50.6417 107.523 50.3492 107.502 50.1976C107.502 49.8455 107.388 49.4881 107.209 49.1414C106.852 48.4427 106.267 47.8144 105.704 47.1428L104.019 45.1442L103.353 44.3534H104.382C105.373 44.3534 106.261 44.8084 106.955 45.3392C107.664 45.87 108.244 46.5199 108.823 47.0832C109.403 47.6519 110.009 48.1719 110.697 48.459C111.022 48.5944 111.418 48.6973 111.694 48.6702C112.019 48.5835 112.057 48.5781 111.976 48.3831C111.84 48.1557 111.461 47.809 111.206 47.5057L110.372 46.5633C109.825 45.9296 109.289 45.2796 108.78 44.6134C107.783 43.2594 106.825 41.8836 105.991 40.4375Z" fill="#153051"/>
<path d="M84.0222 37.4098C86.3891 35.5737 89.2435 34.3172 92.2549 33.873L93.024 33.7593L92.4661 34.3172L88.6585 38.1194L88.5556 37.5452C89.6389 37.9894 90.8792 37.9785 92.152 38.1735C93.4032 38.3848 94.8439 38.8505 95.6184 40.1504L95.8892 40.6054L95.3801 40.7787L92.9644 41.5858L91.7566 41.992C91.3287 42.1328 90.9658 42.2357 90.8034 42.4199C90.7167 42.539 90.7709 42.4578 90.7546 42.4524C90.7221 42.4253 90.8413 42.5228 91.0471 42.604L92.217 43.1077C92.6178 43.2919 93.0294 43.5031 93.414 43.8118C93.7985 44.1097 94.1398 44.5701 94.2806 45.0901L94.351 45.3555L94.1614 45.5559C93.7769 45.9621 93.2298 46.0975 92.7911 46.1246C92.3416 46.1517 91.9354 46.1029 91.5508 46.0704C90.8846 45.9946 90.1263 46.1841 90.0397 46.5741L89.7797 46.0162C91.8379 46.9099 93.7281 48.1665 95.3584 49.6993C95.5534 49.8997 95.7646 50.0568 95.9867 50.3763C96.0896 50.5226 96.1763 50.7717 96.1709 50.9667C96.1709 51.2483 96.0788 51.4379 95.9542 51.6112C95.4343 52.3099 94.5081 52.1962 94.0152 52.0283L90.8684 51.075C90.6192 50.9884 90.2834 50.9125 90.2996 50.9234L90.2076 50.9667L90.2238 50.9613C90.2238 50.9613 90.213 50.9667 90.213 50.9884C90.2022 51.0317 90.213 51.1292 90.2509 51.2267C90.3863 51.66 90.8088 51.947 91.2204 52.3749C92.0058 53.1819 92.6449 54.1244 93.0998 55.148C93.2082 55.4134 93.3219 55.7167 93.2353 56.0688C93.1486 56.4371 92.7532 56.6213 92.4661 56.6267C91.8758 56.6483 91.345 56.5563 90.7979 56.4479C89.7147 56.2096 88.6856 55.7709 87.7811 55.148C88.7235 55.7113 89.7634 56.085 90.8359 56.2475C91.3612 56.3288 91.9299 56.3775 92.4282 56.3288C92.9807 56.2855 93.0024 55.7709 92.737 55.3159C92.2387 54.3681 91.5941 53.5015 90.8304 52.7595C90.4892 52.4128 89.9259 52.077 89.6822 51.4433C89.6226 51.2863 89.5684 51.1075 89.6009 50.88C89.6172 50.7663 89.6714 50.6417 89.758 50.5442C89.8014 50.4955 89.8718 50.4413 89.9313 50.4034L90.0234 50.3547C90.5813 50.1976 90.7763 50.4088 91.0525 50.4413L94.2156 51.2863C94.7247 51.4271 95.1255 51.3892 95.2934 51.1292C95.4667 51.0209 95.2447 50.7067 94.7843 50.3167C93.2136 48.8652 91.3883 47.6899 89.4222 46.8612L89.0485 46.7041L89.1622 46.3033C89.3247 45.7292 89.8609 45.3771 90.2996 45.2526C90.7546 45.1117 91.1987 45.0955 91.632 45.128C92.4011 45.2038 93.154 45.2363 93.4573 44.8843L93.3382 45.3446C93.1811 44.7434 92.5528 44.3047 91.8108 43.9689L90.6517 43.4544C90.4784 43.3569 90.1697 43.2919 89.9259 42.8802C89.6876 42.4849 89.9205 41.9324 90.1426 41.7645C90.5921 41.3366 91.1013 41.2499 91.4696 41.12L92.6828 40.73L95.1039 39.95L94.8655 40.5729C94.351 39.6467 93.1703 39.1755 92.0166 38.9751C90.8359 38.7531 89.5197 38.726 88.2794 38.1789L87.7919 37.9623L88.1765 37.6048L92.1141 33.9326L92.3253 34.3767C89.3843 34.6855 86.4974 35.7091 84.0222 37.4098Z" fill="#153051"/>
<path d="M50.5282 39.7118C49.6995 38.4119 48.4429 37.4749 47.1051 36.7762C46.4335 36.4241 45.7348 36.1208 45.0307 35.8446L43.9637 35.4438C43.6116 35.33 43.2108 35.1296 42.9996 35.1946C42.7775 35.2596 42.8046 35.4817 42.9617 35.8012C43.1079 36.0937 43.3895 36.3104 43.6712 36.5866L45.334 38.1627L48.6595 41.3204L49.0224 41.667L48.5837 41.9053C47.3976 42.5445 46.1356 42.2574 45.0686 42.1328C44.5215 42.057 43.9853 41.9866 43.4979 42.0245C43.2541 42.0407 43.0267 42.0949 42.8208 42.1816C42.6204 42.2682 42.4525 42.4036 42.3009 42.5607L42.2196 41.9216L46.818 44.9601L47.9771 45.7238L46.5797 45.805L43.0754 45.9729C42.485 46.0054 41.8947 45.9946 41.483 46.1517C41.2772 46.2275 41.1418 46.3358 41.0768 46.4658C41.0931 46.4387 41.0172 46.6012 41.0281 46.6067C41.0335 46.6229 41.0226 46.6337 41.0226 46.6771C41.0172 46.7475 41.0389 46.8233 41.0714 46.9045C41.2176 47.2512 41.6455 47.6141 42.0896 47.8307C42.55 48.042 43.1241 48.2261 43.6549 48.3615C44.7436 48.6323 45.8756 48.7461 46.9968 48.6811L47.2784 48.6648L47.4355 48.9411C47.5546 49.1469 47.5601 49.526 47.403 49.7481C47.2622 49.9756 47.0888 50.0893 46.9318 50.176C46.6122 50.3439 46.3089 50.4143 45.9839 50.4468L45.1823 50.4901C44.9278 50.5118 44.6732 50.5443 44.4186 50.5822C43.9149 50.6634 43.4004 50.788 42.9346 50.9396C42.7071 51.0155 42.5067 51.113 42.3659 51.2375C42.3009 51.2863 42.2251 51.3838 42.2142 51.4054C42.133 51.5625 42.1492 51.5517 42.1276 51.6492C42.0788 51.9687 42.3117 52.3966 42.6367 52.6349C42.7992 52.7541 43.0104 52.8408 43.2216 52.8949C43.4437 52.9545 43.682 52.9816 43.9312 52.9978C44.9007 53.0737 46.1627 52.8299 47.2459 53.6044L47.8471 54.0377L47.1376 54.2436C45.5723 54.6931 44.1695 55.7493 43.3029 57.1521L43.1241 56.7242L48.145 58.0295L48.3292 58.0783L48.2858 58.257C48.1883 58.674 47.82 58.8961 47.5276 59.0153C47.2188 59.1507 46.9101 59.2048 46.6826 59.3673C46.4497 59.519 46.2331 59.7681 46.2818 60.001C46.3197 60.2502 46.6285 60.3693 46.9209 60.4668C48.1017 60.8839 49.3258 61.1872 50.5715 61.3713C49.3203 61.2576 48.0746 61.0139 46.8614 60.651C46.5851 60.5643 46.1681 60.4722 46.0489 60.0552C45.9623 59.6381 46.2602 59.3294 46.5147 59.1344C46.8018 58.9178 47.1268 58.8528 47.3867 58.7174C47.6575 58.5928 47.8742 58.4141 47.9067 58.1866L48.0475 58.4087L42.9833 57.2929L42.6042 57.2117L42.8046 56.865C43.7091 55.316 45.1932 54.1136 46.9209 53.5611L46.8126 54.1948C46.076 53.6694 45.009 53.8428 43.8933 53.8211C43.3408 53.8048 42.68 53.6965 42.1438 53.3174C41.6238 52.9274 41.2176 52.3154 41.2826 51.5571C41.2935 51.3892 41.3964 51.1238 41.4451 51.0426C41.5643 50.8313 41.6672 50.723 41.808 50.5984C42.0734 50.3655 42.3713 50.2355 42.6475 50.138C43.1946 49.9485 43.7254 49.8239 44.2778 49.7264C44.554 49.6777 44.8303 49.6397 45.1065 49.6181L45.9081 49.5693C46.1139 49.5477 46.3414 49.4881 46.4931 49.4014C46.5689 49.3635 46.6176 49.3039 46.6176 49.3039C46.6176 49.3039 46.6176 49.3798 46.6068 49.3419L47.0455 49.6018C45.8323 49.6831 44.6082 49.5748 43.422 49.2877C42.8208 49.136 42.2684 48.9735 41.6618 48.7082C41.0768 48.4048 40.5027 48.0257 40.1615 47.2891C40.0856 47.0995 40.0315 46.8883 40.0423 46.6608C40.0423 46.5579 40.064 46.4225 40.1019 46.2979C40.1452 46.1625 40.1398 46.1896 40.2102 46.0271C40.416 45.6317 40.8006 45.3826 41.1418 45.2688C41.8405 45.0305 42.4525 45.0847 43.0212 45.0468L46.531 44.9168L46.3035 45.7509L41.7213 42.6636L41.3043 42.382L41.6455 42.0299C41.8784 41.7862 42.1546 41.575 42.4688 41.4395C42.7829 41.315 43.1079 41.2446 43.4166 41.2229C44.0395 41.1796 44.619 41.2716 45.1715 41.3529C46.2602 41.5262 47.3705 41.7483 48.2154 41.2987L48.1396 41.8783L44.9061 38.6285L43.2866 37.0036C43.0375 36.7437 42.7017 36.4728 42.5067 36.0666C42.4092 35.8716 42.328 35.655 42.3442 35.3842C42.355 35.2434 42.4092 35.1025 42.5229 34.978C42.5934 34.9021 42.6367 34.8859 42.6692 34.8588C42.7558 34.8046 42.8046 34.7884 42.8804 34.7721C43.4491 34.7071 43.7416 34.978 44.1045 35.0917L45.1607 35.5521C45.8594 35.8662 46.5526 36.2075 47.2134 36.6028C48.5404 37.3557 49.7645 38.374 50.5282 39.7118Z" fill="#153051"/>
<path d="M45.7944 92.3794C45.4477 95.1254 45.1661 97.8769 44.7707 100.623C44.5595 101.993 44.2887 103.38 43.812 104.718C43.6929 105.053 43.5575 105.378 43.4112 105.709C43.3354 105.86 43.2217 106.153 42.8642 106.288C42.4905 106.413 42.1872 106.234 42.0138 106.104C41.3747 105.53 41.0877 104.804 40.8873 104.095C40.5189 102.654 40.5677 101.267 40.3402 99.935C40.2427 99.2634 40.1181 98.5918 39.9665 97.931C39.7986 97.319 39.674 96.4686 39.4194 96.1816C39.349 96.0949 39.3057 96.1112 39.3761 96.1166C39.4194 96.122 39.4303 96.0678 39.3707 96.1707C39.2678 96.3874 39.127 96.7882 39.0241 97.0644L38.3795 99.0251C37.9462 100.336 37.3613 101.782 36.148 102.757L35.5847 103.206L35.4331 102.508L34.3065 97.3352L35.0594 97.4381L34.144 99.0468L33.6836 99.8538C33.5212 100.125 33.4074 100.379 33.1745 100.693C32.9687 101.029 32.4 101.23 32.01 101.072C31.6146 100.953 31.3113 100.639 31.1597 100.303C30.878 99.6101 30.8943 99.0143 30.878 98.3589C30.9809 95.7699 32.2483 93.5276 33.4453 91.3882C32.3946 93.598 31.3384 95.9378 31.3926 98.3589C31.4196 98.9222 31.4684 99.6046 31.6905 100.049C31.8042 100.271 31.9775 100.428 32.1833 100.477C32.3892 100.52 32.5083 100.477 32.6546 100.292C32.7845 100.103 32.9308 99.7888 33.0716 99.5234L33.4995 98.7001L34.3498 97.0536L34.8481 96.0841L35.0973 97.1565L36.2997 102.307L35.5847 102.058C36.5543 101.262 37.0742 100.016 37.475 98.7272L38.0979 96.7394C38.2333 96.3657 38.32 96.1166 38.5149 95.7104C38.607 95.51 38.8995 95.1796 39.2949 95.1579C39.7228 95.1416 39.9827 95.3908 40.1344 95.5641C40.4485 95.9378 40.5406 96.3928 40.6164 96.7015L40.8548 97.7306C41.001 98.4185 41.1201 99.1118 41.2122 99.8105C41.4235 101.208 41.3747 102.627 41.6834 103.878C41.8351 104.496 42.1167 105.097 42.4905 105.476C42.5771 105.552 42.6313 105.546 42.5988 105.552C42.5825 105.573 42.6475 105.525 42.7179 105.378C42.8642 105.08 43.005 104.772 43.1296 104.463C43.6387 103.212 43.9529 101.879 44.2182 100.531L45.7944 92.3794Z" fill="#153051"/>
<path d="M25.1909 65.894C25.1909 65.894 25.023 66.1324 24.7305 66.5494C24.4326 66.961 24.0589 67.5785 23.6364 68.3205C23.2085 69.0625 22.8023 69.9725 22.4394 70.9636C22.3907 71.0828 22.3907 71.1695 22.3961 71.1153C22.4015 71.0666 22.2986 70.9907 22.3907 71.0395C22.5478 71.072 22.8998 71.1153 23.1381 71.1424C23.6798 71.1965 24.2322 71.2074 24.7847 71.164C25.0609 71.1478 25.3317 71.1207 25.6079 71.0828L26.025 71.0178C26.22 71.0016 26.545 70.9366 26.8591 71.2778C27.2436 71.8682 27.0107 72.2581 26.9241 72.5506C26.8049 72.8431 26.6695 73.1031 26.5179 73.3576C26.2254 73.8776 25.7596 74.273 25.6784 74.5492C25.5592 74.7659 25.8246 74.95 26.2741 75.0475C27.0541 75.2316 27.7853 75.2046 28.2673 75.0962C28.7548 74.9933 29.031 74.8796 29.031 74.8796C29.031 74.8796 28.8035 75.0692 28.3215 75.275C27.8449 75.4645 27.1028 75.7029 26.1604 75.5837C25.96 75.5566 25.6784 75.5241 25.4021 75.3616C25.1042 75.2154 24.8822 74.755 24.9797 74.3921C25.1638 73.688 25.5646 73.3739 25.7704 72.9297C26.0142 72.556 26.1821 71.7923 26.1441 71.8898C26.1496 71.9007 26.1712 71.9223 26.22 71.944L26.1766 71.9223L26.2308 71.944C26.2579 71.9494 26.2362 71.944 26.1821 71.9548L25.7488 72.0361C25.4509 72.0848 25.1476 72.1227 24.8442 72.139C24.2376 72.1715 23.6256 72.1498 23.0352 72.0794C22.7102 72.0361 22.499 72.0144 22.1145 71.9061C21.9466 71.8736 21.5728 71.6244 21.5349 71.2886C21.4916 70.9582 21.5999 70.7795 21.6487 70.6495C22.0928 69.6258 22.6669 68.7484 23.1815 68.028C24.2376 66.5982 25.1909 65.894 25.1909 65.894Z" fill="#153051"/>
<path d="M8.54137 99.334C8.22723 101.446 8.10807 103.569 8.14599 105.682C8.16765 106.738 8.25431 107.789 8.3843 108.834C8.42763 109.354 8.63345 109.63 8.8826 109.609C9.21299 109.619 9.66795 109.37 10.0579 109.072L11.347 108.13L11.9915 107.659C12.089 107.588 12.2028 107.491 12.3923 107.399C12.5494 107.318 12.9015 107.198 13.2427 107.431C13.5406 107.664 13.5677 107.913 13.6056 108.065C13.6326 108.184 13.6597 108.336 13.676 108.515C13.7031 108.829 13.6814 109.127 13.6489 109.419C13.5731 109.999 13.4052 110.519 13.2806 111.022C13.2156 111.271 13.1614 111.515 13.1289 111.753C13.0802 111.986 13.1019 112.279 13.0964 112.203C12.9664 112.111 13.0477 112.208 13.3673 112.105C13.5677 112.051 13.7789 111.97 13.9847 111.856C14.8026 111.401 15.4417 110.567 15.9833 109.695L16.8012 108.379L16.7524 109.923C16.7253 110.746 16.8553 111.586 17.1803 112.36C17.3374 112.75 17.5378 113.118 17.7815 113.465C17.9007 113.638 18.0306 113.801 18.1715 113.963C18.334 114.093 18.2094 114.082 18.3502 114.017C18.4531 113.92 18.5831 113.698 18.7185 113.525C18.8647 113.34 19.011 113.167 19.1735 112.999C19.4876 112.669 19.8343 112.371 20.2026 112.105C20.9392 111.58 21.7733 111.201 22.6453 111.011C21.8112 111.32 21.0421 111.77 20.3867 112.338C20.0563 112.625 19.7584 112.94 19.493 113.275C19.3576 113.443 19.2385 113.622 19.1247 113.795C18.9947 113.98 18.9243 114.158 18.7239 114.386C18.6318 114.489 18.4423 114.619 18.2148 114.597C17.9711 114.57 17.8465 114.429 17.7598 114.348C17.5973 114.18 17.4403 114.007 17.2994 113.822C17.0124 113.454 16.7632 113.059 16.5628 112.636C16.162 111.791 15.9291 110.854 15.9346 109.901L16.7037 110.123C16.1404 111.055 15.4796 112.008 14.4343 112.631C14.1743 112.777 13.8926 112.902 13.5785 112.988C13.416 112.994 12.8527 113.302 12.3598 112.739C12.0511 112.198 12.2136 111.911 12.2136 111.629C12.2461 111.336 12.3057 111.06 12.3652 110.795C12.4898 110.259 12.6306 109.76 12.7065 109.278C12.7444 109.04 12.7552 108.807 12.7444 108.59C12.766 108.444 12.5981 107.984 12.7119 108.19C12.9773 108.255 12.7498 108.195 12.5331 108.412L11.8778 108.872L10.5671 109.787C10.1067 110.096 9.59754 110.459 8.84468 110.454C8.6497 110.443 8.46555 110.399 8.25973 110.275C8.10266 110.177 7.951 110.036 7.85351 109.863C7.65852 109.522 7.63686 109.197 7.61519 108.921C7.54478 107.843 7.52312 106.765 7.56103 105.687C7.62061 103.526 7.97267 101.387 8.54137 99.334Z" fill="#153051"/>
<path d="M92.9536 108.558C92.9536 108.558 93.3273 109.928 93.6036 112.046C93.7227 113.102 93.8581 114.342 93.8906 115.68C93.8906 115.853 93.9069 116.086 93.7715 116.373C93.6577 116.644 93.2948 116.872 93.0349 116.888C92.5203 116.969 92.0708 116.736 91.7891 116.606C91.085 116.254 90.4946 115.794 89.9638 115.268C89.4385 114.743 88.9943 114.169 88.5719 113.611L87.9598 112.777L87.6782 112.392C87.6024 112.295 87.624 112.371 87.7161 112.338C87.6673 112.241 87.5699 113.172 87.5644 113.719C87.5157 114.348 87.5319 114.851 87.429 115.474C87.364 115.794 87.1366 116.119 86.8007 116.216C86.4866 116.308 86.2104 116.238 85.9883 116.14C85.5279 115.94 85.3059 115.572 85.1325 115.328C84.813 114.797 84.5638 114.543 84.5638 114.543C84.5638 114.543 84.8726 114.738 85.2788 115.209C85.49 115.431 85.7392 115.707 86.1075 115.799C86.492 115.902 86.8603 115.777 86.8874 115.371C86.9199 114.943 86.8603 114.299 86.8495 113.714C86.8387 113.411 86.8278 113.102 86.817 112.782C86.8062 112.609 86.8224 112.387 86.8874 112.181C86.9578 111.986 87.0391 111.699 87.4344 111.531C87.8569 111.379 88.2144 111.65 88.3444 111.813L88.6856 112.23L89.3193 113.042C89.7418 113.584 90.1751 114.115 90.6517 114.586C91.1121 115.063 91.6483 115.48 92.1845 115.761C92.5203 115.935 92.7261 116.01 92.9049 116C92.9969 115.972 92.9969 116.054 93.024 115.691C93.0511 114.38 93.0782 113.151 93.0457 112.1C92.9969 109.966 92.9536 108.558 92.9536 108.558Z" fill="#153051"/>
<path d="M79.9763 130.288C80.3284 131.664 80.5829 133.061 80.7942 134.464C80.9025 135.168 80.9891 135.872 81.0487 136.582C81.1083 137.302 81.1733 137.974 81.1895 138.732C81.1841 139.111 81.0812 139.609 80.7075 139.934C80.3771 140.308 79.608 140.303 79.2722 139.929C78.6331 139.241 78.4814 138.634 78.1077 138.001L77.1382 136.116L76.6507 135.173L76.4233 134.74C76.3853 134.659 76.3583 134.724 76.4557 134.713C76.4937 134.648 76.2391 134.973 76.2499 135.157C76.2066 135.526 76.1958 135.813 76.1903 136.17C76.1849 136.852 76.2445 137.562 76.2228 138.304C76.1741 139.068 76.1199 139.766 75.665 140.617C75.5783 140.79 75.2154 140.974 74.9879 140.904C74.755 140.855 74.6684 140.79 74.5276 140.693C74.3867 140.573 74.2622 140.487 74.0997 140.313C73.7909 140.005 73.5851 139.685 73.401 139.344C72.6915 137.99 72.5019 136.549 71.7436 135.509C71.6515 135.368 71.5595 135.271 71.527 135.255C71.5053 135.282 71.6732 135.206 71.6082 135.233C71.5324 135.347 71.4403 135.829 71.3482 136.132L70.8174 138.185L70.747 138.45L70.4816 138.434C70.2054 138.418 69.9508 138.25 69.81 138.06C69.6638 137.876 69.5825 137.681 69.5229 137.492C69.4092 137.096 69.3821 136.76 69.3225 136.403C69.2142 135.693 69.1492 134.984 69.1059 134.269C69.0246 132.844 69.0246 131.42 69.1546 130.006C69.198 131.425 69.29 132.839 69.4904 134.231C69.5934 134.93 69.7125 135.623 69.8425 136.311C69.9129 136.652 69.9725 137.02 70.0754 137.302C70.1783 137.6 70.3625 137.811 70.5141 137.79L70.1837 138.039L70.6116 135.959C70.7145 135.585 70.682 135.341 70.9095 134.816C71.0016 134.518 71.6028 134.296 71.8953 134.513C72.1769 134.664 72.3069 134.865 72.4152 135.006C73.3414 136.278 73.5526 137.768 74.1918 138.9C74.3434 139.176 74.5384 139.452 74.7334 139.636C74.8092 139.729 74.9717 139.848 75.1071 139.956C75.1071 139.956 75.1775 139.989 75.1233 139.967C75.0692 139.934 74.8904 140.032 74.9013 140.053C75.1017 139.642 75.2425 138.894 75.2479 138.255C75.2804 137.584 75.2371 136.88 75.2479 136.148C75.2533 135.796 75.2804 135.379 75.3292 135.043C75.4537 134.561 75.5242 134.106 76.2608 133.825C76.7211 133.727 77.0407 134.031 77.1707 134.258C77.3007 134.48 77.344 134.599 77.4307 134.767L77.9019 135.72L78.8389 137.622C79.1639 138.212 79.4347 139.014 79.7597 139.371C80.0251 139.701 80.5288 139.344 80.5396 138.694C80.5613 138.039 80.5342 137.302 80.5071 136.609L80.3988 134.496C80.3175 133.094 80.155 131.691 79.9763 130.288Z" fill="#153051"/>
<path d="M113.606 141.359C114.131 144.029 114.521 146.71 114.841 149.402C114.889 150.057 115.106 150.74 114.83 151.628C114.7 152.078 114.169 152.538 113.617 152.511C113.042 152.489 112.68 152.17 112.409 151.899C111.862 151.298 111.575 150.751 111.174 150.182L110.064 148.481L110.632 148.573C110.405 148.682 110.329 149.158 110.367 149.651C110.388 150.16 110.432 150.821 109.939 151.33C109.684 151.585 109.278 151.617 108.997 151.52C108.709 151.428 108.482 151.271 108.276 151.081C107.875 150.702 107.642 150.166 107.648 149.646C107.756 150.155 108.059 150.588 108.455 150.864C108.839 151.135 109.381 151.26 109.581 150.973C109.69 150.848 109.755 150.637 109.766 150.42C109.782 150.193 109.755 149.982 109.711 149.716C109.674 149.451 109.641 149.175 109.674 148.86C109.701 148.557 109.836 148.173 110.15 147.929L110.47 147.68L110.719 148.021L111.916 149.662C112.322 150.182 112.696 150.832 113.075 151.222C113.27 151.422 113.503 151.547 113.617 151.536C113.752 151.525 113.844 151.487 113.925 151.287C114.099 150.875 113.963 150.166 113.931 149.489C113.741 146.786 113.606 144.078 113.606 141.359Z" fill="#153051"/>
<path d="M39.1106 143.698C39.1106 143.698 39.376 145.951 39.6523 149.331C39.7173 150.176 39.7877 151.091 39.8635 152.061C39.9014 152.543 39.9393 153.041 39.9772 153.55C39.9827 153.67 40.0097 153.8 39.9881 154.016C39.9718 154.114 39.9502 154.227 39.8689 154.363C39.7985 154.504 39.5602 154.661 39.3598 154.644C38.8994 154.579 38.8669 154.385 38.7586 154.33L38.4607 154.054C37.6591 153.28 36.9712 152.353 36.4513 151.308C35.8826 150.295 35.7309 148.99 35.2109 148.28C35.0918 148.112 34.886 147.934 34.8264 147.928C34.8264 147.928 34.7831 147.923 34.8426 147.928C34.821 147.928 34.7397 147.923 34.7722 147.928C34.8155 147.923 34.7776 147.934 34.7776 147.934C34.756 147.939 34.7072 147.988 34.6639 148.053C34.4527 148.345 34.5881 148.779 34.5826 149.483C34.5393 149.835 34.5339 150.209 34.0573 150.582C33.9327 150.669 33.7269 150.707 33.5861 150.691C33.4398 150.674 33.364 150.647 33.2611 150.609C33.1419 150.566 32.9957 150.501 32.8386 150.414C32.2862 150.106 31.8745 149.678 31.5116 149.277C31.165 148.887 30.7859 148.432 30.5259 148.188C30.4663 148.134 30.423 148.145 30.4825 148.134C30.5584 148.107 30.5367 148.069 30.4988 148.156L30.2334 148.827C30.1467 149.055 30.0601 149.277 29.9734 149.499C29.8705 149.667 29.8813 150.057 29.356 150.252C28.7656 150.284 28.6735 149.884 28.5327 149.775C28.3973 149.613 28.2565 149.412 28.1319 149.234C27.1461 147.75 26.9512 146.249 26.9349 145.258C26.9349 144.251 27.1082 143.704 27.1082 143.704C27.1082 143.704 27.0216 144.272 27.1245 145.247C27.2166 146.211 27.6011 147.603 28.5814 148.914C28.706 149.077 28.8252 149.228 28.9768 149.391C29.1177 149.58 29.3072 149.678 29.2151 149.634C29.3289 149.299 29.4426 148.947 29.5618 148.589L29.7947 147.874C29.8434 147.739 29.9734 147.457 30.3092 147.376C30.6234 147.311 30.8346 147.441 30.9754 147.528C31.4954 147.939 31.7554 148.318 32.1291 148.703C32.4811 149.077 32.844 149.429 33.2503 149.64C33.3369 149.683 33.4344 149.732 33.5752 149.781C33.689 149.813 33.6294 149.786 33.5698 149.819C33.5427 149.857 33.6836 149.624 33.6619 149.439C33.6944 149.055 33.4236 148.291 33.8352 147.576C33.9381 147.403 34.0735 147.224 34.301 147.1C34.4202 147.035 34.5285 146.991 34.7072 146.975C34.8101 146.964 34.7939 146.975 34.848 146.97C34.9726 146.975 34.9943 146.986 35.0701 147.002C35.5576 147.165 35.7526 147.43 35.98 147.701C36.3863 148.27 36.5325 148.876 36.6896 149.407C36.8412 149.938 37.02 150.431 37.2529 150.907C37.7078 151.866 38.3253 152.733 39.0348 153.447L39.311 153.713C39.3977 153.821 39.5439 153.865 39.3544 153.816C39.1431 153.848 39.1485 153.995 39.1702 153.897C39.1865 153.859 39.1756 153.729 39.1756 153.594C39.1648 153.085 39.1594 152.586 39.1485 152.099C39.1323 151.129 39.1161 150.209 39.0998 149.358C39.0619 145.962 39.1106 143.698 39.1106 143.698Z" fill="#153051"/>
<path d="M63.7383 161.962C63.955 162.753 64.1229 163.549 64.2908 164.34L64.5129 165.537L64.6266 166.132C64.6266 166.311 64.8324 166.701 64.3125 167.097C64.0958 167.243 63.7004 167.151 63.5867 167.037C63.435 166.929 63.3484 166.815 63.2671 166.696L62.9421 166.149L62.3409 165.092C62.146 164.751 61.9401 164.356 61.7614 164.069C61.5772 163.766 61.3552 163.614 61.2739 163.646L61.6747 163.213L61.5068 164.984C61.4743 165.293 61.4581 165.547 61.3985 165.9C61.3877 166.062 61.2198 166.479 60.8244 166.533C60.4615 166.56 60.299 166.398 60.1582 166.295C59.232 165.488 58.4412 164.573 57.8021 163.554C58.6904 164.356 59.6111 165.103 60.559 165.759C60.6511 165.824 60.7648 165.835 60.7052 165.818C60.624 165.824 60.6077 165.905 60.6294 165.786L60.6511 164.925L60.7323 163.148L60.7486 162.78L61.1331 162.715C61.4798 162.655 61.8481 162.796 62.0593 162.969C62.2868 163.143 62.4384 163.343 62.5738 163.538C62.823 163.944 62.9746 164.275 63.175 164.643L63.7329 165.721L63.9929 166.241C64.0687 166.398 64.15 166.327 63.9171 166.371C63.7762 166.539 63.9171 166.419 63.8683 166.224L63.8358 165.618L63.7654 164.405C63.7492 163.592 63.7221 162.78 63.7383 161.962Z" fill="#153051"/>
<path d="M114.337 260.386C114.185 260.386 114.028 260.311 113.936 260.175C113.784 259.953 113.839 259.65 114.061 259.498C114.916 258.908 115.973 258.827 116.904 258.756L117.224 258.729C119 258.583 120.744 258.171 122.402 257.516C122.651 257.418 122.933 257.537 123.035 257.792C123.133 258.041 123.014 258.323 122.759 258.426C121.01 259.119 119.174 259.547 117.3 259.704L116.975 259.731C116.086 259.796 115.247 259.861 114.608 260.3C114.527 260.359 114.429 260.386 114.337 260.386Z" fill="#153051"/>
<path d="M122.201 263.967C122.163 263.967 122.12 263.961 122.082 263.95C120.631 263.577 119.136 263.387 117.641 263.382C117.37 263.382 117.153 263.16 117.153 262.894C117.153 262.623 117.37 262.407 117.641 262.407C119.217 262.412 120.793 262.613 122.321 263.003C122.581 263.068 122.738 263.333 122.673 263.593C122.618 263.82 122.423 263.967 122.201 263.967Z" fill="#153051"/>
<path d="M103.613 235.737C103.607 235.737 103.607 235.737 103.602 235.737C103.331 235.732 103.12 235.51 103.125 235.239C103.196 231.534 103.526 227.791 104.111 224.125C104.154 223.859 104.409 223.681 104.669 223.718C104.934 223.762 105.119 224.011 105.075 224.276C104.496 227.905 104.165 231.599 104.1 235.26C104.095 235.52 103.878 235.737 103.613 235.737Z" fill="#153051"/>
<path d="M106.381 238.359C106.37 238.359 106.359 238.359 106.348 238.359C106.077 238.342 105.877 238.11 105.893 237.839L106.126 234.139C106.148 233.777 106.158 233.462 106.034 233.251C105.904 233.013 105.991 232.72 106.223 232.585C106.462 232.455 106.754 232.542 106.89 232.775C107.16 233.257 107.123 233.804 107.095 234.204L106.863 237.904C106.852 238.164 106.635 238.359 106.381 238.359Z" fill="#153051"/>
<path d="M143.964 168.754C143.845 168.754 143.72 168.711 143.623 168.619C142.22 167.265 140.53 166.317 138.743 165.32C137.535 164.643 136.289 163.95 135.152 163.116C134.659 162.758 134.139 162.298 134.02 161.626C133.971 161.361 134.15 161.107 134.415 161.063C134.675 161.009 134.935 161.193 134.978 161.459C135.038 161.794 135.374 162.076 135.726 162.336C136.82 163.132 138.038 163.815 139.219 164.475C140.979 165.461 142.805 166.479 144.3 167.926C144.489 168.11 144.5 168.418 144.31 168.613C144.218 168.706 144.088 168.754 143.964 168.754Z" fill="#153051"/>
<path d="M148.893 165.071C148.801 165.071 148.714 165.044 148.633 164.995C145.318 162.921 141.808 161.101 138.217 159.579C137.968 159.476 137.854 159.189 137.957 158.94C138.06 158.691 138.342 158.577 138.596 158.68C142.236 160.218 145.789 162.065 149.153 164.167C149.38 164.307 149.451 164.611 149.304 164.838C149.218 164.99 149.055 165.071 148.893 165.071Z" fill="#153051"/>
<path d="M55.4082 249.153C55.3486 249.153 55.2836 249.142 55.224 249.115C53.6262 248.471 51.8659 248.157 50.1598 248.162H50.1544C49.889 248.162 49.6724 247.951 49.6669 247.68C49.6615 247.409 49.8782 247.192 50.149 247.187C51.9905 247.209 53.8754 247.517 55.5923 248.216C55.8415 248.319 55.9606 248.601 55.8631 248.85C55.7819 249.039 55.5977 249.153 55.4082 249.153Z" fill="#153051"/>
<path d="M51.2322 244.517C51.0372 244.517 50.8531 244.397 50.7773 244.202C50.6798 243.948 50.8043 243.666 51.0589 243.574C51.8551 243.271 52.7434 243.2 53.5666 243.379C53.832 243.433 53.9999 243.693 53.9403 243.953C53.8862 244.213 53.6425 244.387 53.3662 244.327C52.7217 244.192 52.023 244.246 51.4055 244.479C51.346 244.506 51.2918 244.517 51.2322 244.517Z" fill="#153051"/>
<path d="M128.62 108.211L123.588 98.0558C123.127 97.1296 122.651 96.1655 122.337 95.169C121.73 93.2299 121.73 91.1013 121.736 89.0432C121.741 87.8733 121.741 86.4217 122.429 85.4143C122.591 85.176 123.014 85.0135 123.555 84.9647C123.653 84.9539 123.756 84.9539 123.853 84.9539C124.655 84.9539 125.494 85.2085 125.846 85.5768L125.922 85.6472C126.881 86.4 127.596 87.4725 128.289 88.507L133.543 96.3659C134.182 97.3192 134.843 98.305 135.401 99.334C135.547 99.5994 135.666 99.8811 135.802 100.152C136.479 100.201 137.101 100.39 137.659 100.688C137.367 99.9948 137.053 99.307 136.69 98.6353C136.099 97.5413 135.417 96.5284 134.762 95.5481L129.508 87.6891C128.793 86.6221 127.986 85.4143 126.865 84.5206C126.041 83.6973 124.509 83.4211 123.436 83.5024C122.423 83.5836 121.638 83.9736 121.216 84.5856C120.279 85.9667 120.273 87.6674 120.273 89.0323C120.268 91.2043 120.268 93.4412 120.945 95.6022C121.291 96.7126 121.817 97.7687 122.283 98.7003L127.58 109.381C127.867 108.942 128.219 108.547 128.62 108.211Z" fill="#153051"/>
<path d="M143.189 117.576C142.848 118.009 142.447 118.388 142.003 118.697C143.46 123.604 144.657 128.869 144.029 134.041C143.931 134.864 143.503 135.737 143.097 135.715C142.87 135.709 142.588 135.504 142.258 135.108C141.478 134.155 140.904 133.007 140.357 131.896L133.218 117.5C132.758 117.652 132.281 117.765 131.788 117.787C131.766 117.787 131.75 117.782 131.729 117.782L139.046 132.546C139.636 133.733 140.243 134.962 141.131 136.04C141.359 136.316 142.046 137.156 143.059 137.183H143.113C144.338 137.183 145.264 136.029 145.48 134.22C146.168 128.517 144.787 122.819 143.189 117.576Z" fill="#153051"/>
<path d="M143.352 136.029C143.444 137.518 143.699 138.97 144.132 140.395C144.576 140.205 145.02 140.021 145.47 139.831C144.912 138.678 144.359 137.518 143.801 136.365C143.395 135.52 142.133 136.257 142.539 137.101C143.097 138.255 143.65 139.414 144.208 140.568C144.565 141.315 145.784 140.79 145.545 140.005C145.15 138.699 144.901 137.388 144.82 136.029C144.755 135.092 143.292 135.087 143.352 136.029Z" fill="#153051"/>
<path d="M122.196 113.79C122.256 113.654 123.144 112.192 122.472 113.356C122.147 113.92 122.797 113.346 123.333 112.961C124.173 110.096 124.996 107.22 125.868 104.365C126.237 103.163 124.352 102.648 123.989 103.845C123.03 106.987 122.126 110.15 121.21 113.302C121.514 113.768 122.061 113.248 122.196 113.79Z" fill="#153051"/>
<path d="M159.292 132.844C159.108 132.747 158.945 132.617 158.783 132.492C157.781 134.772 156.79 137.063 155.831 139.365C155.165 140.963 153.361 147.75 152.126 148.075C151.39 148.27 148.822 146.363 148.037 146.027C145.805 145.069 143.493 144.299 141.175 143.579C136.219 142.052 131.165 140.817 126.107 139.685C123.978 139.208 121.844 138.748 119.704 138.315C116.059 137.572 117.24 134.994 118.058 131.875C119.233 127.39 119.407 124.904 120.669 120.446C120.642 120.37 120.631 120.284 120.609 120.208C120.149 121.345 120.338 120.306 119.071 120.76C117.923 124.877 116.785 129.004 115.713 133.142C114.234 138.84 115.361 139.392 120.609 140.486C126.209 141.651 131.788 142.935 137.296 144.478C142.696 145.989 147.354 148.351 152.424 150.479C152.614 150.561 153.009 150.506 153.177 150.382C154.796 149.147 155.078 146.558 155.771 144.711C157.212 140.893 158.848 137.145 160.489 133.402C160.505 133.364 160.521 133.332 160.538 133.299C160.115 133.196 159.693 133.061 159.292 132.844Z" fill="#153051"/>
<path d="M171.554 98.554C165.098 96.6421 158.414 95.6834 151.904 94.0043C148.801 93.2027 145.73 92.2928 142.691 91.2746C140.102 90.408 136.993 88.5881 134.247 88.496C133.917 88.4852 133.565 88.6856 133.408 88.9781C132.709 90.2509 132.411 91.7512 131.972 93.1269C131.593 94.3239 133.473 94.8384 133.852 93.6469C135.303 89.081 140.53 92.6395 143.834 93.701C147.717 94.9468 151.655 96.0138 155.636 96.9075C159.119 97.6874 162.639 98.3048 166.111 99.1389C167.562 99.4856 169.756 99.6697 171.04 100.439C172.86 101.528 172.426 102.02 172.107 103.434C171.359 106.754 168.857 110.372 167.422 113.46C166.328 115.81 165.266 118.172 164.183 120.528C164.383 120.549 164.584 120.566 164.789 120.609C165.223 120.706 165.623 120.907 166.008 121.14C167.703 117.44 169.42 113.747 171.143 110.058C172.215 107.767 173.482 105.487 174.387 103.125C175.524 100.157 174.392 99.3935 171.554 98.554Z" fill="#153051"/>
<path d="M120.679 86.6223C117.153 85.8098 115.772 90.3486 116.552 93.1163C117.164 95.2991 118.925 97.3193 120.122 99.2042C121.178 100.862 122.023 103.126 124.081 103.624C125.3 103.916 125.819 102.042 124.601 101.744C122.954 101.349 121.161 97.211 120.349 95.9328C119.791 95.0608 119.12 94.1942 118.735 93.2247C118.497 92.6289 117.852 87.9655 120.165 88.5017C121.384 88.7833 121.904 86.9039 120.679 86.6223Z" fill="#153051"/>
<path d="M169.864 98.3102C169.843 97.3353 169.626 96.1383 168.678 95.64C167.736 95.1471 166.56 95.4287 165.781 96.0895C164.28 97.3515 163.614 100.536 165.813 101.392C166.983 101.847 167.487 99.9621 166.333 99.5126C165.894 99.3447 167.85 95.4667 167.915 98.3102C167.947 99.5667 169.897 99.5667 169.864 98.3102Z" fill="#153051"/>
<path d="M162.233 96.4959C162.357 95.3314 162.255 94.0694 160.89 93.7715C159.671 93.5061 158.734 94.4214 158.279 95.4505C157.84 96.4363 157.196 98.3915 157.987 99.3394C158.712 100.211 160.446 99.9839 160.895 98.944C161.388 97.8066 159.709 96.81 159.211 97.9582C159.341 97.8878 159.471 97.8932 159.611 97.9799C159.628 97.8337 159.644 97.6874 159.66 97.5412C159.725 97.135 159.839 96.7233 160.001 96.3442C160.077 96.16 160.37 95.6672 160.397 95.6617C160.288 95.6672 160.288 96.3496 160.278 96.4959C160.153 97.7416 162.103 97.7362 162.233 96.4959Z" fill="#153051"/>
<path d="M156.129 95.3638C156.394 94.4051 156.4 93.1864 155.381 92.6611C154.455 92.1844 153.421 92.7044 152.933 93.5439C152.104 94.9738 151.796 99.2364 154.558 98.4619C155.766 98.1261 155.251 96.2466 154.038 96.5824C154.428 96.4741 154.282 95.6671 154.347 95.3475C154.39 95.1309 154.45 94.9142 154.526 94.7084C154.336 94.4701 154.249 94.5188 154.249 94.8492C153.913 96.0571 155.793 96.5716 156.129 95.3638Z" fill="#153051"/>
<path d="M150.718 94.2482C150.902 93.1379 150.848 91.8434 149.635 91.3559C148.454 90.8793 147.36 91.7621 146.9 92.7912C146.401 93.9016 146.158 95.4994 146.434 96.7018C146.721 97.9692 148.221 97.8771 149.136 97.4113C150.252 96.8426 149.266 95.1581 148.151 95.7268C147.945 95.8677 147.864 95.8839 147.902 95.7756C148.053 95.9706 148.199 96.1656 148.351 96.3605C148.21 95.7431 148.308 94.9036 148.443 94.3024C148.514 93.9882 148.606 93.6795 148.768 93.4033C148.844 93.322 148.871 93.2245 148.855 93.1108C148.898 93.3166 148.893 93.5224 148.839 93.7282C148.638 94.9577 150.518 95.4831 150.718 94.2482Z" fill="#153051"/>
<path d="M144.505 92.2927C144.944 90.0721 142.095 88.5393 140.725 90.5433C139.745 91.9786 139.328 95.3908 141.651 95.7971C142.875 96.0137 143.406 94.1343 142.171 93.9176C141.732 93.8418 141.917 92.9644 141.976 92.6448C142.014 92.4336 142.068 92.2061 142.144 92.0057C141.987 92.4011 142.816 90.8195 142.626 91.7782C142.388 93.0023 144.262 93.5276 144.505 92.2927Z" fill="#153051"/>
<path d="M139.43 90.0938C139.468 89.0485 139.035 87.8677 137.876 87.6511C136.717 87.4344 135.91 88.3389 135.525 89.3193C135.157 90.2617 134.735 91.567 135.022 92.5853C135.33 93.6577 136.381 93.9502 137.361 94.026C138.613 94.1235 138.607 92.1736 137.361 92.0761C137.02 92.0491 136.971 92.0978 136.89 91.7999C136.836 91.6049 137.02 91.0633 137.069 90.8737C137.145 90.5758 137.215 90.2509 137.351 89.98C137.524 89.6172 137.497 89.6334 137.481 90.0992C137.437 91.3449 139.387 91.3449 139.43 90.0938Z" fill="#153051"/>
<path d="M162.607 109.582C161.269 108.861 159.92 108.222 158.49 107.718C156.161 106.901 154.233 105.644 151.985 104.68C149.055 103.418 145.822 103.093 142.859 101.988C141.684 101.549 141.175 103.434 142.339 103.868C145.562 105.07 149.12 105.325 152.218 106.944C155.3 108.553 158.55 109.614 161.621 111.261C162.726 111.862 163.712 110.177 162.607 109.582Z" fill="#153051"/>
<path d="M159.487 114.895C157.374 113.21 154.601 112.842 152.175 111.716C149.586 110.513 146.472 110.047 144.067 108.612C143.639 108.357 143.233 108.471 142.956 108.742C143.162 109.273 143.276 109.831 143.303 110.399C145.459 111.613 147.999 111.894 150.252 112.94C152.581 114.023 156.145 114.711 158.106 116.276C159.081 117.045 160.467 115.675 159.487 114.895Z" fill="#153051"/>
<path d="M155.452 119.937C152.256 118.746 149.218 117.229 146.179 115.696C145.063 115.133 144.072 116.812 145.193 117.381C148.383 118.995 151.579 120.571 154.932 121.822C156.112 122.256 156.622 120.376 155.452 119.937Z" fill="#153051"/>
<path d="M152.321 129.996C151.563 129.579 150.788 129.205 149.987 128.874C149.337 128.609 148.086 128.457 147.631 127.921C146.818 126.962 145.443 128.349 146.255 129.297C146.813 129.958 147.685 130.093 148.465 130.364C149.467 130.711 150.415 131.16 151.341 131.669C152.435 132.287 153.421 130.602 152.321 129.996Z" fill="#153051"/>
<path d="M160.901 133.375C159.411 137.074 158.041 140.812 156.93 144.635C156.389 146.499 156.161 148.432 155.766 150.328C155.43 151.947 155.755 151.936 154.601 151.974C154.168 151.991 152.527 150.918 152.137 150.729C148.606 149.05 144.928 147.663 141.261 146.32C133.364 143.422 125.272 141.05 117.43 138.017C116.845 137.789 116.59 138.732 117.17 138.954C129.768 143.823 143.839 146.564 155.473 153.61C155.728 153.762 156.129 153.626 156.188 153.318C157.494 146.439 159.736 139.88 162.282 133.424C161.827 133.472 161.361 133.456 160.901 133.375Z" fill="#153051"/>
<path d="M167.016 121.974C169.762 115.431 172.443 108.856 174.398 102.015C174.571 101.408 173.629 101.154 173.461 101.755C171.554 108.428 168.862 114.824 166.095 121.194C166.425 121.416 166.739 121.671 167.016 121.974Z" fill="#153051"/>
<path d="M160.061 123.09C160.673 125.608 164.183 126.941 166.468 127.32C168.749 127.699 171.056 126.258 169.783 123.718C168.7 121.557 165.721 119.84 163.392 119.526C161.361 119.249 158.794 120.474 160.007 122.851C160.575 123.967 162.26 122.981 161.691 121.866C161.242 120.983 164.746 121.92 164.99 122.044C165.938 122.526 166.853 123.193 167.579 123.972C168.31 124.758 167.812 125.592 166.717 125.392C166.181 125.294 165.65 125.142 165.141 124.958C164.074 124.568 162.227 123.767 161.935 122.564C161.642 121.351 159.763 121.866 160.061 123.09Z" fill="#153051"/>
<path d="M160.548 121.898C159.075 122.05 157.954 123.041 157.775 124.563C157.569 126.302 158.815 127.824 160.088 128.831C162.802 130.976 167.497 131.593 169.074 127.818C169.556 126.665 167.671 126.155 167.194 127.298C166.344 129.34 163.516 128.707 162.087 127.851C161.28 127.369 158.014 124.103 160.554 123.843C161.783 123.718 161.794 121.768 160.548 121.898Z" fill="#153051"/>
<path d="M157.716 125.311C156.4 126.34 155.522 128.544 155.988 130.196C156.524 132.086 158.339 133.034 160.039 133.679C161.854 134.361 163.934 135.32 165.786 134.226C167.34 133.31 167.817 131.583 167.465 129.898C167.21 128.669 165.331 129.189 165.586 130.418C166.322 133.939 162.168 132.411 160.559 131.799C159.552 131.415 158.182 130.868 157.867 129.681C157.591 128.647 158.295 127.315 159.091 126.692C160.077 125.917 158.691 124.547 157.716 125.311Z" fill="#153051"/>
<path d="M22.9216 94.4651C31.2951 111.624 47.8796 121.812 66.7824 123.437C76.6291 124.282 86.9525 124.601 96.6909 122.662C107.404 120.528 117.078 115.058 127.666 112.474C128.885 112.176 128.371 110.297 127.146 110.595C118.215 112.772 110.004 116.98 101.197 119.537C91.6971 122.299 81.7854 122.278 71.9874 121.812C61.3769 121.308 52.2397 119.358 43.1188 113.747C34.5828 108.493 28.9932 102.476 24.6006 93.4794C24.0536 92.3582 22.3745 93.3439 22.9216 94.4651Z" fill="#153051"/>
<path d="M19.8343 102.503C28.4624 119.461 43.4654 129.812 62.3844 132.357C84.4827 135.336 106.045 127.818 126.231 119.689C127.379 119.228 126.876 117.338 125.711 117.809C107.036 125.332 87.3587 132.346 66.8961 130.873C46.9372 129.438 30.5964 119.375 21.5133 101.523C20.9446 100.401 19.2656 101.382 19.8343 102.503Z" fill="#153051"/>
<path d="M131.176 112.604C130.829 112.604 130.499 112.42 130.32 112.1C130.06 111.629 130.234 111.033 130.705 110.779L135.563 108.125C136.538 107.594 137.638 106.987 138.261 106.099C138.975 105.075 139.003 103.564 138.326 102.508C138.152 102.237 138.033 102.156 137.973 102.129C137.93 102.107 137.822 102.086 137.643 102.097C136.755 102.167 135.969 102.909 135.141 103.7L134.61 104.198C133.922 104.821 133.18 105.368 132.465 105.893C131.81 106.375 131.154 106.857 130.542 107.399C129.605 108.239 128.473 109.56 128.403 111.104C128.376 111.64 127.899 112.106 127.385 112.03C126.848 112.003 126.431 111.548 126.459 111.012C126.561 108.791 128.035 107.031 129.248 105.942C129.903 105.357 130.607 104.837 131.311 104.317C132.021 103.797 132.687 103.304 133.299 102.746L133.798 102.281C134.789 101.338 135.91 100.271 137.486 100.152C137.963 100.114 138.391 100.179 138.764 100.347C139.225 100.547 139.615 100.91 139.961 101.447C141.066 103.164 141.023 105.536 139.853 107.209C138.97 108.471 137.594 109.224 136.495 109.825L131.636 112.479C131.496 112.566 131.333 112.604 131.176 112.604Z" fill="#153051"/>
<path d="M141.629 120.225C141.012 120.225 140.443 120.133 140.021 120.062L134.735 119.196C131.636 118.692 128.901 118.367 126.626 119.521C126.155 119.764 125.559 119.575 125.316 119.093C125.072 118.611 125.262 118.026 125.744 117.782C128.771 116.244 132.4 116.84 135.049 117.273L140.335 118.14C141.348 118.307 142.35 118.394 142.87 117.917C143.081 117.668 143.303 116.488 143.2 116.108C143.027 115.735 141.673 114.549 141.218 114.408C140.719 114.245 140.405 113.72 140.541 113.216C140.676 112.712 141.137 112.398 141.662 112.512C142.658 112.734 144.798 114.559 145.08 115.605C145.329 116.525 145.031 118.567 144.191 119.353C143.449 120.041 142.496 120.225 141.629 120.225Z" fill="#153051"/>
<path d="M132.416 115.924C131.924 115.924 131.501 115.55 131.452 115.052C131.393 114.516 131.783 114.034 132.319 113.98C135.265 113.666 138.185 113.032 140.996 112.106C142.019 111.764 142.566 111.402 142.664 110.985C142.713 110.79 142.669 110.524 142.545 110.237C142.274 109.603 141.505 108.98 140.59 108.65C139.777 108.358 138.992 108.331 138.477 108.591C138.006 108.829 137.41 108.639 137.172 108.157C136.928 107.675 137.123 107.09 137.605 106.852C138.602 106.348 139.934 106.337 141.261 106.819C142.702 107.345 143.85 108.331 144.338 109.468C144.63 110.15 144.711 110.838 144.565 111.445C144.164 113.113 142.306 113.725 141.608 113.958C138.672 114.928 135.612 115.588 132.53 115.919C132.487 115.924 132.449 115.924 132.416 115.924Z" fill="#153051"/>
</g>
<defs>
<clipPath id="clip0_2825_4932">
<rect width="174.826" height="270" fill="white"/>
</clipPath>
</defs>
</svg>
